<svg width="40" height="31" viewBox="0 0 40 31" fill="none" xmlns="http://www.w3.org/2000/svg">
<path d="M11.9778 15.9247L6.77967 2.5H35.0002C36.9332 2.5 38.5002 4.06701 38.5002 6V8.74419C38.5002 12.8863 35.1423 16.2442 31.0002 16.2442H12.4441C12.2376 16.2442 12.0524 16.1173 11.9778 15.9247Z" fill="black" stroke="#E2781A" stroke-width="3"/>
<line y1="1.75" x2="6.55738" y2="1.75" stroke="#E2781A" stroke-width="3"/>
<path d="M13.1147 16.3489V17.3256C13.1147 20.6393 15.801 23.3256 19.1148 23.3256H37.377" stroke="#E2781A" stroke-width="3"/>
<mask id="path-4-inside-1_276_1445" fill="white">
<ellipse cx="19.3444" cy="28.2096" rx="2.95082" ry="2.7907"/>
</mask>
<ellipse cx="19.3444" cy="28.2096" rx="2.95082" ry="2.7907" fill="black"/>
<path d="M19.2952 28.2096C19.2952 28.1614 19.3064 28.112 19.3247 28.0711C19.3418 28.0329 19.3604 28.012 19.3696 28.0033C19.3871 27.9867 19.385 28.0003 19.3444 28.0003V34.0003C22.471 34.0003 25.2952 31.5633 25.2952 28.2096H19.2952ZM19.3444 28.0003C19.3038 28.0003 19.3017 27.9867 19.3192 28.0033C19.3284 28.012 19.3469 28.0329 19.364 28.0711C19.3823 28.112 19.3936 28.1614 19.3936 28.2096H13.3936C13.3936 31.5633 16.2177 34.0003 19.3444 34.0003V28.0003ZM19.3936 28.2096C19.3936 28.2579 19.3823 28.3073 19.364 28.3482C19.3469 28.3864 19.3284 28.4073 19.3192 28.416C19.3017 28.4325 19.3038 28.4189 19.3444 28.4189V22.4189C16.2177 22.4189 13.3936 24.856 13.3936 28.2096H19.3936ZM19.3444 28.4189C19.385 28.4189 19.3871 28.4325 19.3696 28.416C19.3604 28.4073 19.3418 28.3864 19.3247 28.3482C19.3064 28.3073 19.2952 28.2579 19.2952 28.2096H25.2952C25.2952 24.856 22.471 22.4189 19.3444 22.4189V28.4189Z" fill="#E2781A" mask="url(#path-4-inside-1_276_1445)"/>
<mask id="path-6-inside-2_276_1445" fill="white">
<ellipse cx="31.8034" cy="28.2096" rx="2.95082" ry="2.7907"/>
</mask>
<ellipse cx="31.8034" cy="28.2096" rx="2.95082" ry="2.7907" fill="black"/>
<path d="M31.7542 28.2096C31.7542 28.1614 31.7654 28.112 31.7837 28.0711C31.8008 28.0329 31.8194 28.012 31.8285 28.0033C31.8461 27.9867 31.8439 28.0003 31.8034 28.0003V34.0003C34.93 34.0003 37.7542 31.5633 37.7542 28.2096H31.7542ZM31.8034 28.0003C31.7628 28.0003 31.7606 27.9867 31.7782 28.0033C31.7873 28.012 31.8059 28.0329 31.823 28.0711C31.8413 28.112 31.8525 28.1614 31.8525 28.2096H25.8525C25.8525 31.5633 28.6767 34.0003 31.8034 34.0003V28.0003ZM31.8525 28.2096C31.8525 28.2579 31.8413 28.3073 31.823 28.3482C31.8059 28.3864 31.7873 28.4073 31.7782 28.416C31.7606 28.4325 31.7628 28.4189 31.8034 28.4189V22.4189C28.6767 22.4189 25.8525 24.856 25.8525 28.2096H31.8525ZM31.8034 28.4189C31.8439 28.4189 31.8461 28.4325 31.8285 28.416C31.8194 28.4073 31.8008 28.3864 31.7837 28.3482C31.7654 28.3073 31.7542 28.2579 31.7542 28.2096H37.7542C37.7542 24.856 34.93 22.4189 31.8034 22.4189V28.4189Z" fill="#E2781A" mask="url(#path-6-inside-2_276_1445)"/>
</svg>
