<svg width="142" height="126" viewBox="0 0 142 126" fill="none" xmlns="http://www.w3.org/2000/svg">
<path d="M81.1894 20.9956C74.4839 18.7687 63.5702 19.0254 57.4614 23.254C57.3743 23.3033 57.3084 23.3779 57.2757 23.4642C57.2429 23.5506 57.2456 23.643 57.283 23.7249C57.3205 23.8068 57.3903 23.8727 57.4799 23.9107C57.5696 23.9487 57.6731 23.9564 57.7718 23.9324C61.64 22.9844 65.128 21.5178 69.1797 21.0957C73.2314 20.6736 77.0019 21.1258 80.8649 21.7101C81.3122 21.7768 81.6607 21.1531 81.1894 20.9956Z" fill="#111111"/>
<path d="M54.8101 25.3177C54.4094 25.59 54.0135 25.8666 53.5933 26.1047C53.1931 26.2933 52.8452 26.5621 52.5785 26.8888C52.5412 26.9529 52.5248 27.0243 52.5313 27.0945C52.5379 27.1648 52.567 27.2309 52.6153 27.2852C52.6636 27.3395 52.7291 27.3797 52.804 27.4009C52.8789 27.4222 52.9601 27.4237 53.038 27.4052C53.4263 27.2722 53.7785 27.0619 54.0665 26.791C54.4378 26.4935 54.8189 26.2219 55.2098 25.9411C55.6008 25.6604 55.2503 25.0351 54.8101 25.3177Z" fill="#111111"/>
<path d="M50.7731 28.8C48.569 33.4257 50.2249 38.7923 50.9068 43.4832C51.8189 49.7842 52.3424 56.8584 54.9883 62.73C55.1724 63.1421 56.033 63.1239 55.9727 62.5808C55.3298 57.2036 53.6635 51.9159 52.8091 46.5507C52.3375 43.5141 51.9295 40.532 51.497 37.529C51.0978 34.7036 50.5508 31.9185 51.8133 29.1374C52.0479 28.6098 51.0225 28.2675 50.7731 28.8Z" fill="#111111"/>
<path d="M55.0901 63.8072C55.2902 64.4382 55.5923 65.0363 55.9872 65.5834C56.279 66.1455 56.7347 66.6232 57.3093 66.9694C57.3904 67.0061 57.4828 67.0207 57.5754 67.0113C57.668 67.0019 57.7568 66.9689 57.831 66.9164C57.9053 66.8638 57.9617 66.794 57.9935 66.7153C58.0253 66.6367 58.0311 66.5526 58.0102 66.4732C57.7296 65.9694 57.3869 65.4967 56.9879 65.0633C56.618 64.5363 56.3563 63.9966 56.0455 63.4587C55.793 63.0059 54.9752 63.3494 55.1145 63.8281L55.0901 63.8072Z" fill="#111111"/>
<path d="M59.6326 67.467C62.144 67.9351 64.694 68.2592 67.267 68.4373C69.3505 68.6234 71.5607 68.988 73.6576 68.6414C74.1448 68.567 74.0159 67.9915 73.6576 67.8868C71.4102 67.2181 68.7839 67.3135 66.4105 67.0987C64.1943 66.9044 61.9933 66.6441 59.7614 66.5856C59.1911 66.5714 59.1074 67.3334 59.6279 67.4454L59.6326 67.467Z" fill="#111111"/>
<path d="M75.5665 67.8189C76.5893 67.3229 78.5611 66.3292 78.4753 65.1481C78.4742 65.1039 78.4619 65.061 78.4394 65.0224C78.4169 64.9839 78.3847 64.9507 78.3452 64.9254C78.3057 64.9 78.2599 64.883 78.2111 64.8758C78.1624 64.8685 78.1119 64.8711 78.0634 64.8834C77.5181 65.0438 77.0398 65.3577 76.703 65.7762C76.1963 66.2294 75.6426 66.6388 75.0499 66.9986C74.9321 67.0708 74.8477 67.1788 74.8138 67.3008C74.7799 67.4227 74.7991 67.5494 74.8674 67.655C74.9358 67.7606 75.0482 67.8372 75.1817 67.8691C75.3153 67.901 75.4599 67.8859 75.5862 67.8269L75.5665 67.8189Z" fill="#111111"/>
<path d="M78.8914 63.0957C83.066 53.3844 87.1836 42.6139 88.3298 32.3314C88.3768 31.9235 87.678 31.8965 87.5574 32.2677C85.919 37.3582 84.944 42.6036 83.3694 47.7135C81.7948 52.8235 79.9645 57.8991 78.0508 62.9297C77.8605 63.417 78.6964 63.5613 78.8914 63.0957Z" fill="#111111"/>
<path d="M88.4613 29.5625C88.6446 26.3616 86.7453 22.4214 82.7797 21.9379C82.6551 21.9174 82.5243 21.9371 82.4104 21.9935C82.2965 22.0499 82.2069 22.1393 82.1574 22.2459C82.1079 22.3526 82.1017 22.4696 82.1399 22.5763C82.1781 22.683 82.2582 22.7724 82.3661 22.8289C85.2145 24.3901 87.6873 26.2787 87.6162 29.5932C87.6081 30.0772 88.4335 30.0472 88.4613 29.5625Z" fill="#111111"/>
<path d="M48.8752 28.078C45.4312 28.3274 42.0516 29.2204 38.9595 30.6982C35.8673 32.176 33.1327 34.205 30.936 36.6515C30.8703 36.7118 30.8331 36.7917 30.8326 36.8737C30.832 36.9557 30.8682 37.033 30.9331 37.0885C30.9981 37.1441 31.0865 37.1735 31.1788 37.1701C31.2712 37.1667 31.36 37.131 31.4258 37.0706C36.348 32.9324 42.4496 30.0943 48.9929 28.8995C49.5156 28.8019 49.4024 28.0457 48.8801 28.0821L48.8752 28.078Z" fill="#111111"/>
<path d="M30.1278 37.652C29.27 38.5438 27.7535 40.0143 28.4151 41.231C28.4345 41.2613 28.4618 41.2867 28.4948 41.3055C28.5278 41.3242 28.5656 41.3356 28.6052 41.3388C28.6449 41.342 28.6852 41.337 28.7231 41.324C28.761 41.3111 28.7954 41.2906 28.8236 41.2642C29.2154 40.8834 29.5007 40.4277 29.6547 39.9365C29.8966 39.3003 30.2606 38.7015 30.7301 38.1675C31.0871 37.7875 30.4898 37.2675 30.1278 37.652Z" fill="#111111"/>
<path d="M28.2549 41.8446C31.8318 49.8243 35.6253 58.4716 41.3407 65.4063C41.3927 65.4783 41.475 65.5284 41.5704 65.5461C41.6657 65.5639 41.7669 65.5479 41.8527 65.5015C41.9385 65.4551 42.0024 65.3819 42.031 65.2972C42.0596 65.2124 42.0507 65.1226 42.0062 65.0466C38.2185 57.0178 33.057 49.4966 29.0774 41.514C28.8786 41.116 28.071 41.4329 28.2549 41.8446Z" fill="#111111"/>
<path d="M42.6463 67.1396C42.9845 67.6275 43.4451 68.0367 43.9944 68.3372C44.2431 68.473 44.5092 68.5832 44.7881 68.6658C45.2098 68.7899 45.3577 68.7061 45.7709 68.6301C46.1841 68.5541 46.2023 68.026 45.8988 67.8627C45.7658 67.7694 45.627 67.6828 45.4829 67.6032C45.2456 67.5392 45.0132 67.4633 44.7868 67.3757C44.3564 67.1779 43.9936 66.8855 43.7312 66.5248C43.3027 65.9476 42.2279 66.5184 42.6465 67.1134L42.6463 67.1396Z" fill="#111111"/>
<path d="M47.9936 68.9912C50.0606 68.3788 52.1866 67.7993 54.1906 67.0363C55.4 66.5774 56.6052 65.9919 56.8398 64.769C56.8645 64.6794 56.8559 64.5864 56.8155 64.5041C56.775 64.4219 56.7048 64.3548 56.6155 64.3131C56.5262 64.2715 56.4226 64.2574 56.3205 64.2731C56.2184 64.2888 56.1233 64.3334 56.0495 64.4002C53.718 66.2803 50.5626 66.9365 47.6951 67.9624C46.9696 68.2203 47.2534 69.2365 47.9936 68.9912Z" fill="#111111"/>
<path d="M27.3622 41.1246C24.9464 42.1696 21.289 43.9896 20.0771 46.2409C20.0298 46.3177 20.0112 46.405 20.0242 46.4895C20.0371 46.574 20.0809 46.6512 20.1489 46.7094C20.2169 46.7676 20.3055 46.8037 20.4012 46.8122C20.4969 46.8207 20.5946 46.8012 20.6796 46.7566C21.9892 46.119 22.9818 45.0164 24.1496 44.2222C25.3603 43.4168 26.6275 42.6829 27.9425 42.0257C28.6345 41.6684 28.0489 40.8243 27.3622 41.1246Z" fill="#111111"/>
<path d="M19.5187 48.2353C19.2643 48.7381 18.9952 49.2282 18.7261 49.7271C18.5069 50.1281 19.189 50.4396 19.3886 50.0393C19.6332 49.5282 19.8777 49.0258 20.137 48.5273C20.3363 48.1532 19.7132 47.8571 19.5138 48.2311L19.5187 48.2353Z" fill="#111111"/>
<path d="M18.9772 51.2381C20.2681 54.8884 22.0447 58.3712 24.2707 61.6151C26.3271 64.7426 28.6991 68.4118 31.9102 70.6957C31.9891 70.7581 32.0917 70.7926 32.1998 70.7931C32.3078 70.7937 32.4144 70.7602 32.5006 70.6986C32.5869 70.6371 32.6472 70.5514 32.671 70.4568C32.6948 70.3622 32.6804 70.2647 32.6305 70.1816C30.56 66.9545 27.6074 64.1994 25.4683 60.966C23.4245 57.6919 21.5735 54.3202 19.9225 50.8639C19.685 50.3977 18.8233 50.7557 18.9772 51.2381Z" fill="#111111"/>
<path d="M34.5161 72.5904C35.2326 72.8781 36.0247 73.005 36.8255 72.9603C37.1803 72.9416 37.5305 72.8602 37.8558 72.721C38.1811 72.5818 38.4748 72.3876 38.7197 72.1497C38.7605 72.1103 38.7881 72.0617 38.7993 72.0099C38.8105 71.9581 38.8047 71.9053 38.7827 71.8577C38.7607 71.8101 38.7234 71.7698 38.6752 71.7417C38.627 71.7135 38.57 71.6988 38.5111 71.6991C37.4489 71.6678 36.2571 71.8857 35.207 71.5049C34.4121 71.2108 33.7065 72.2925 34.5161 72.5904Z" fill="#111111"/>
<path d="M39.6227 71.9277C40.5384 71.2782 41.459 70.6328 42.4041 70.0084C43.2262 69.5504 43.9572 68.9704 44.5633 68.2953C44.6137 68.2117 44.6366 68.1182 44.6291 68.0258C44.6217 67.9335 44.5841 67.8463 44.5211 67.7747C44.4581 67.7031 44.3723 67.6502 44.2739 67.6223C44.1756 67.5944 44.0689 67.5928 43.9668 67.6176C43.0966 67.9972 42.3024 68.5085 41.6217 69.1277C40.7353 69.8111 39.8294 70.4691 38.9186 71.1316C38.3939 71.5091 39.0882 72.3056 39.6227 71.9277Z" fill="#111111"/>
<path d="M17.4526 50.8985C14.0635 53.3935 12.6024 56.9236 11.1562 60.4488C9.84007 63.6548 8.68061 66.9948 9.23931 70.3555C9.33859 70.9765 10.487 70.7907 10.4714 70.1709C10.2746 64.2112 12.9748 55.7132 18.1822 51.4967C18.6822 51.0897 17.9721 50.5171 17.4675 50.8849L17.4526 50.8985Z" fill="#111111"/>
<path d="M10.9489 73.5844C17.9239 75.0854 27.2332 75.4412 33.993 72.3067C34.4321 72.1031 34.2499 71.3941 33.7427 71.4692C30.1089 72.0114 26.6442 73.0144 22.9486 73.2315C19.0177 73.4353 15.0995 73.1546 11.306 72.3975C11.1422 72.3908 10.9782 72.436 10.8433 72.5251C10.7083 72.6142 10.6111 72.7414 10.5689 72.8842C10.5267 73.027 10.5422 73.1762 10.6126 73.3051C10.6831 73.4341 10.804 73.5345 10.9538 73.5886L10.9489 73.5844Z" fill="#111111"/>
<path d="M89.9435 25.6608C91.7626 25.9392 93.5324 26.3953 95.2214 27.021C96.6085 27.5417 97.8264 28.3736 99.2585 28.7837C99.7783 28.9392 100.033 28.3066 99.75 28.0117C97.7057 25.841 93.3088 24.9981 90.2346 24.7435C89.5569 24.6897 89.2365 25.5906 89.9482 25.6999L89.9435 25.6608Z" fill="#111111"/>
<path d="M102.314 31.4354C103.654 32.2581 104.092 33.5711 105.052 34.656C105.306 34.9431 105.833 34.6581 105.84 34.3398C105.866 32.6788 104.174 31.5377 102.725 30.7973C102.275 30.5784 101.922 31.1794 102.323 31.4263L102.314 31.4354Z" fill="#111111"/>
<path d="M104.851 36.8683C104.774 39.4398 102.816 42.2108 101.638 44.5865C100.52 46.8522 99.4103 49.1249 98.3087 51.4046C96.2718 55.6026 93.9889 59.7833 92.2617 64.0793C92.0414 64.629 93.0094 64.939 93.3132 64.4168C96.2425 59.2864 98.5537 53.8115 101.095 48.5249C102.723 45.1368 106.245 40.4961 105.516 36.7699C105.449 36.4228 104.838 36.5236 104.846 36.8728L104.851 36.8683Z" fill="#111111"/>
<path d="M91.256 66.8437C90.4325 67.9045 89.2149 68.6798 87.8317 69.0241C86.2109 69.3231 85.2459 68.6728 83.8964 68.1325C83.44 67.9526 82.8317 68.4069 83.1389 68.8279C84.0556 70.0954 86.2625 70.4474 87.8782 70.1792C88.7836 70.0467 89.6409 69.6927 90.3525 69.1576C91.0641 68.6224 91.6014 67.9275 91.9034 67.1519C92.0187 66.8291 91.5039 66.564 91.2756 66.8604L91.256 66.8437Z" fill="#111111"/>
<path d="M81.9604 68.2934C81.0838 67.9834 80.2285 67.6319 79.3979 67.2401C78.6862 66.8013 77.9173 66.4374 77.1059 66.1553C77.0081 66.1373 76.9054 66.1452 76.8099 66.178C76.7145 66.2107 76.6305 66.2669 76.5681 66.3397C76.5058 66.4126 76.4677 66.4989 76.4586 66.5883C76.4495 66.6778 76.4696 66.7664 76.5167 66.8435C77.4656 68.2082 79.8786 68.8441 81.5567 69.1493C82.1161 69.251 82.5241 68.4778 81.9605 68.2759L81.9604 68.2934Z" fill="#111111"/>
<path d="M106.96 36.0028C111.389 38.6025 117.499 41.4154 120.013 45.7568C120.348 46.315 121.425 45.8883 121.179 45.292C120.227 43.0058 118.077 41.6122 115.986 40.1467C113.331 38.2638 110.523 36.5515 107.584 35.0222C106.9 34.6639 106.319 35.6211 106.96 36.0028Z" fill="#111111"/>
<path d="M120.027 46.5195C117.425 51.0807 114.971 55.6977 112.163 60.1702C109.674 64.1941 105.825 68.1712 103.998 72.4377C103.883 72.6997 104.287 72.8249 104.485 72.6691C108.421 69.5498 111.136 64.2415 113.641 60.1952C116.392 55.8712 118.725 51.3599 120.612 46.7124C120.631 46.6455 120.622 46.576 120.588 46.5164C120.554 46.4568 120.496 46.4112 120.425 46.3878C120.354 46.3645 120.275 46.3649 120.202 46.389C120.129 46.4132 120.067 46.4595 120.027 46.5195Z" fill="#111111"/>
<path d="M102.985 72.9957C100.63 73.1017 98.3279 72.5763 96.3773 71.488C94.6491 70.5963 93.2042 69.2017 91.3962 68.4872C90.9797 68.3237 90.3776 68.7465 90.6894 69.1362C93.1594 72.2499 98.6125 74.4708 102.983 73.9939C103.691 73.9159 103.722 72.9515 102.985 72.9957Z" fill="#111111"/>
<path d="M120.722 48.1948C126.372 54.5395 131.229 64.0134 127.394 72.3291C127.085 73.0119 128.143 73.5666 128.531 72.8635C133.252 64.3848 127.601 53.7143 121.523 47.4593C121.054 46.9792 120.297 47.7175 120.722 48.1948Z" fill="#111111"/>
<path d="M125.738 75.7012C117.113 78.8497 110.283 74.5745 102.215 73.0137C102.089 72.9919 101.957 73.0112 101.841 73.0681C101.726 73.125 101.635 73.2157 101.586 73.3239C101.536 73.4321 101.531 73.5506 101.572 73.658C101.612 73.7655 101.695 73.8547 101.806 73.9097C106.169 75.823 110.845 77.1657 115.693 77.898C119.269 78.3875 122.875 78.165 126.029 76.3013C126.389 76.092 126.157 75.5334 125.758 75.6831L125.738 75.7012Z" fill="#111111"/>
<path d="M12.6136 71.0642C12.7548 71.4314 12.9634 71.7729 13.2312 72.0755C13.31 72.1372 13.4081 72.1768 13.5139 72.1895C13.6198 72.2022 13.7289 72.1875 13.8285 72.1472C13.928 72.1069 14.0138 72.0426 14.0757 71.962C14.1376 71.8813 14.173 71.7877 14.1777 71.6922C14.0824 71.2675 13.9126 70.8617 13.6744 70.4892C13.594 70.3688 13.4623 70.2832 13.3074 70.2505C13.1525 70.2179 12.9865 70.2408 12.8447 70.3144C12.706 70.3933 12.6045 70.5154 12.5615 70.6551C12.5184 70.7948 12.5371 70.9414 12.6136 71.0642Z" fill="#111111"/>
<path d="M14.3179 69.5656C14.6843 70.4352 15.2027 71.2428 15.8548 71.9599C15.8898 71.9884 15.9339 72.0068 15.9816 72.0128C16.0294 72.0189 16.0787 72.0124 16.1237 71.9941C16.1686 71.9758 16.2072 71.9466 16.2347 71.9099C16.2622 71.8732 16.2775 71.8307 16.2786 71.7876C16.0913 70.833 15.7342 69.9176 15.2204 69.0751C14.9684 68.5436 14.0315 69.0311 14.3179 69.5656Z" fill="#111111"/>
<path d="M17.537 69.6024L18.3337 70.977C18.5355 71.4226 18.8181 71.8333 19.1707 72.1933C19.2249 72.252 19.3022 72.2902 19.3882 72.3009C19.4743 72.3115 19.5632 72.2939 19.6385 72.2512C19.7139 72.2085 19.7704 72.1437 19.7978 72.0688C19.8251 71.9939 19.8213 71.914 19.7871 71.844C19.6496 71.3782 19.4268 70.9388 19.1276 70.5428L18.3063 69.1821C18.0487 68.76 17.309 69.1617 17.5568 69.5842L17.537 69.6024Z" fill="#111111"/>
<path d="M20.1209 67.5376L21.2063 69.8523C21.4451 70.5751 21.8246 71.25 22.3281 71.8474C22.374 71.8828 22.431 71.9053 22.4923 71.9122C22.5537 71.9192 22.6168 71.9103 22.6742 71.8867C22.7317 71.8631 22.7811 71.8257 22.8167 71.7789C22.8523 71.7322 22.8725 71.6779 22.875 71.6227C22.7503 70.8974 22.4857 70.2023 22.0926 69.5673L20.9198 67.1076C20.6969 66.6361 19.9029 67.0704 20.1209 67.5376Z" fill="#111111"/>
<path d="M22.8716 67.8324C23.3589 68.4903 23.7832 69.1849 24.1403 69.9092C24.4239 70.6563 24.752 71.3879 25.1232 72.1011C25.165 72.1639 25.2297 72.2118 25.3071 72.2374C25.3846 72.2629 25.4706 72.2646 25.5518 72.2423C25.633 72.22 25.705 72.1749 25.7565 72.114C25.808 72.0531 25.8363 71.9797 25.8369 71.9052C25.8523 70.3309 24.6794 68.6342 23.7395 67.3649C23.3937 66.9023 22.5308 67.3652 22.8716 67.8324Z" fill="#111111"/>
<path d="M26.2583 69.2224C26.6267 69.9849 27.1698 71.0637 28.0765 71.4187C28.1446 71.4492 28.2223 71.4611 28.2999 71.453C28.3776 71.4448 28.452 71.4169 28.5142 71.3727C28.5763 71.3285 28.6235 71.2698 28.6501 71.2038C28.6767 71.1378 28.6815 71.0672 28.6639 71.0007C28.5117 70.6287 28.3007 70.2798 28.037 69.9642C27.7788 69.5865 27.5531 69.1911 27.3619 68.7812C27.3381 68.7115 27.298 68.6475 27.244 68.5936C27.19 68.5396 27.1234 68.4968 27.0484 68.4678C26.9734 68.4389 26.8916 68.4245 26.8084 68.4256C26.7252 68.4266 26.6423 68.4431 26.5651 68.474C26.4879 68.5048 26.4181 68.5494 26.3601 68.6048C26.3021 68.6602 26.2572 68.7252 26.2284 68.7956C26.1995 68.8661 26.1872 68.9404 26.1924 69.0139C26.1975 69.0874 26.22 69.1584 26.2583 69.2224Z" fill="#111111"/>
<path d="M30.7049 65.1711C31.2573 65.9484 31.7604 66.7537 32.2119 67.5834C32.5346 68.3659 32.9723 69.103 33.5141 69.7765C33.729 69.9605 34.0987 69.7858 34.1052 69.5371C34.1412 67.8141 32.6843 65.9971 31.7108 64.629C31.3409 64.1019 30.3106 64.6232 30.7049 65.1711Z" fill="#111111"/>
<path d="M33.5016 64.194C33.8451 65.0141 34.2082 65.8247 34.6155 66.6382C35.0228 67.4516 35.3019 68.3394 36.0551 68.8613C36.0998 68.8978 36.1561 68.9214 36.2172 68.9293C36.2783 68.9371 36.3415 68.9288 36.399 68.9055C36.4565 68.8821 36.5059 68.8446 36.5411 68.7977C36.5762 68.7507 36.5957 68.6963 36.597 68.6411C36.4783 67.9251 36.2007 67.2434 35.78 66.6351C35.3141 65.7541 34.8828 64.8587 34.4761 63.9493C34.2486 63.4389 33.2938 63.6828 33.5163 64.2065L33.5016 64.194Z" fill="#111111"/>
<path d="M36.9805 65.0314C37.3546 65.6498 37.7386 66.2678 38.1128 66.8774C38.3866 67.4708 38.7641 68.0187 39.2319 68.5017C39.2859 68.5441 39.3546 68.5694 39.4279 68.5741C39.5012 68.5787 39.5754 68.5624 39.6397 68.5276C39.7039 68.4927 39.755 68.441 39.7854 68.3801C39.8158 68.3192 39.824 68.2521 39.8088 68.1887C39.5971 67.5675 39.2797 66.9825 38.8673 66.4534C38.4734 65.8445 38.1042 65.2216 37.73 64.6032C37.6693 64.527 37.5777 64.4751 37.473 64.4576C37.3684 64.4401 37.2583 64.4583 37.1644 64.5087C37.0705 64.5591 36.9996 64.6379 36.9656 64.7298C36.9316 64.8217 36.937 64.9199 36.9807 65.0053L36.9805 65.0314Z" fill="#111111"/>
<path d="M40.9079 60.9568C41.6875 62.641 42.5329 64.776 44.141 65.9595C44.3803 66.1643 44.9465 65.9477 44.7719 65.6229C43.983 63.8518 42.4605 62.3645 41.5487 60.6198C41.3401 60.2308 40.709 60.5936 40.9129 60.9523L40.9079 60.9568Z" fill="#111111"/>
<path d="M44.6039 60.6582L45.7191 62.9019C45.9736 63.6033 46.3796 64.2485 46.9152 64.8027C46.9606 64.8392 47.0176 64.8628 47.0793 64.8707C47.1409 64.8786 47.2047 64.8704 47.2629 64.8471C47.3211 64.8239 47.3713 64.7865 47.4075 64.7395C47.4437 64.6925 47.4643 64.6378 47.467 64.5821C47.3574 63.8676 47.0898 63.1857 46.6794 62.575L45.4568 60.2306C45.1996 59.7386 44.3859 60.191 44.6234 60.675L44.6039 60.6582Z" fill="#111111"/>
<path d="M47.7783 60.9288L48.6954 62.6873C48.9132 63.2509 49.2369 63.7739 49.6532 64.2351C49.7168 64.2889 49.7977 64.3242 49.8858 64.3366C49.974 64.3489 50.0655 64.3378 50.149 64.3046C50.2325 64.2713 50.3043 64.2174 50.3554 64.1496C50.4066 64.0818 50.4348 64.0031 50.4366 63.9232C50.3209 63.3358 50.0919 62.775 49.7596 62.265L48.804 60.3945C48.5032 59.8038 47.4922 60.3506 47.793 60.9413L47.7783 60.9288Z" fill="#111111"/>
<path d="M50.3794 61.6998C50.6529 62.133 50.978 62.5377 51.3493 62.9071C51.4249 62.967 51.5213 63.0029 51.6243 63.0096C51.7274 63.0164 51.8317 62.9935 51.922 62.9445C52.0123 62.8954 52.084 62.8227 52.1265 62.737C52.169 62.6512 52.1801 62.5569 52.1582 62.4679C51.9433 62.0099 51.6709 61.5768 51.3461 61.1763C50.981 60.6446 49.9995 61.1816 50.3794 61.6998Z" fill="#111111"/>
<path d="M57.3413 56.9272C57.4288 57.8269 57.5507 58.721 57.7217 59.6133C57.815 60.5165 58.0819 61.3919 58.5108 62.2017C58.56 62.2729 58.6345 62.327 58.7234 62.3559C58.8122 62.3848 58.9105 62.3869 59.0037 62.362C59.0968 62.337 59.1798 62.2862 59.2401 62.2173C59.3004 62.1484 59.3348 62.065 59.3383 61.9797C59.2442 61.1833 59.0667 60.3998 58.8081 59.6393C58.588 58.7313 58.422 57.817 58.3003 56.888C58.235 56.3583 57.286 56.3709 57.3168 56.9237L57.3413 56.9272Z" fill="#111111"/>
<path d="M59.7543 59.9906C59.9661 60.6633 60.1483 61.3633 60.4096 61.9906C60.446 62.116 60.5376 62.221 60.6644 62.2827C60.7913 62.3443 60.9429 62.3575 61.0859 62.3193C61.2289 62.2812 61.3517 62.1948 61.4271 62.0792C61.5026 61.9635 61.5246 61.8282 61.4882 61.7028C61.3404 61.0147 61.0744 60.3483 60.8576 59.6801C60.6408 59.012 59.5373 59.3574 59.7396 59.9781L59.7543 59.9906Z" fill="#111111"/>
<path d="M63.1222 59.6075C63.273 59.8981 63.3864 60.2041 63.4603 60.52C63.4752 60.847 63.5512 61.1671 63.6851 61.4672C63.7249 61.5262 63.7819 61.5743 63.8506 61.6064C63.9192 61.6386 63.997 61.6538 64.0762 61.6505C64.1554 61.6471 64.2332 61.6254 64.3018 61.5875C64.3704 61.5496 64.4274 61.4968 64.4671 61.4344C64.6375 61.0448 64.6593 60.6219 64.5292 60.2325C64.4466 59.828 64.3088 59.4361 64.119 59.0652C63.823 58.4696 62.8163 59.021 63.1222 59.6075Z" fill="#111111"/>
<path d="M66.6579 59.3792C66.6904 60.1125 66.8059 60.8376 67.0025 61.5437C67.0171 61.6124 67.0609 61.6724 67.1251 61.7114C67.1892 61.7504 67.2688 61.7656 67.3477 61.7538C67.4267 61.7421 67.499 61.7043 67.5501 61.6481C67.6011 61.5919 67.6271 61.5216 67.6227 61.4514C67.6445 60.7462 67.5899 60.044 67.4596 59.3545C67.4085 58.8983 66.6018 58.9276 66.6579 59.3792Z" fill="#111111"/>
<path d="M68.8122 60.2183C68.8473 60.7557 68.9193 61.2891 69.0278 61.8157C69.0274 62.0395 69.0956 62.2563 69.2252 62.443C69.3547 62.6296 69.5407 62.779 69.7632 62.8752C69.8613 62.9066 69.9552 62.8377 70.0146 62.7745C70.312 62.4147 70.1573 62.019 70.0912 61.6114C69.9911 61.1395 69.9253 60.6611 69.8942 60.179C69.8539 59.5741 68.7867 59.6085 68.8171 60.2225L68.8122 60.2183Z" fill="#111111"/>
<path d="M72.0444 60.4872C71.7541 61.1654 71.7266 61.9002 71.9666 62.5719C72.1607 62.9751 72.7775 62.6952 72.8143 62.3491C72.851 62.003 72.7885 61.7827 72.8201 61.476C72.84 61.1946 72.8946 60.9145 72.983 60.6408C73.1538 60.1109 72.2449 59.93 72.0593 60.4649L72.0444 60.4872Z" fill="#111111"/>
<path d="M73.8302 59.4789C73.929 60.0645 73.9383 60.663 73.8577 61.2583C73.8058 61.6704 74.5874 61.7336 74.6787 61.3201C74.8105 60.6283 74.8068 59.9271 74.6679 59.2477C74.5776 58.7753 73.7596 58.997 73.8698 59.4425L73.8302 59.4789Z" fill="#111111"/>
<path d="M76.1527 58.2413C75.9498 59.1479 75.7175 60.0557 75.5097 60.9581C75.3526 61.6492 74.9779 62.4967 75.392 63.1233C75.4214 63.1656 75.4614 63.201 75.5091 63.227C75.5567 63.2529 75.6109 63.2688 75.6674 63.2735C75.724 63.2781 75.7817 63.2714 75.8361 63.2538C75.8906 63.2362 75.9405 63.2081 75.9822 63.1717C76.6154 62.6685 76.592 61.7439 76.695 61.0417C76.8386 60.1721 76.9625 59.3032 77.1159 58.4333C77.2131 57.8754 76.2746 57.6693 76.1527 58.2413Z" fill="#111111"/>
<path d="M77.7281 59.3045C77.7388 59.8064 77.6675 60.3104 77.5164 60.8008C77.3804 61.2816 77.1265 61.7231 76.9562 62.1833C76.7601 62.8059 77.6642 63.0001 78.0462 62.5366C78.7853 61.641 78.8583 60.2806 78.7815 59.2575C78.7363 58.6567 77.6929 58.6771 77.7134 59.2919L77.7281 59.3045Z" fill="#111111"/>
<path d="M82.8398 58.1891C82.6858 59.0973 82.4393 59.995 82.1034 60.8709C81.823 61.5798 81.2076 62.3532 81.3453 63.1037C81.3605 63.1543 81.3888 63.2006 81.428 63.2389C81.4671 63.2773 81.5161 63.3067 81.5712 63.325C81.6262 63.3432 81.6858 63.3498 81.7455 63.3442C81.8051 63.3386 81.8631 63.3209 81.915 63.2926C82.7247 62.9138 83.0126 61.816 83.2733 61.0992C83.603 60.176 83.8286 59.23 83.9467 58.2756C84.0292 57.7136 82.9322 57.6181 82.8299 58.1982L82.8398 58.1891Z" fill="#111111"/>
<path d="M83.82 61.2803C83.6696 61.6963 83.5143 62.108 83.359 62.5197C83.2037 62.9315 82.9501 63.3206 83.1001 63.7037C83.1181 63.7655 83.1522 63.8222 83.1996 63.8692C83.247 63.9162 83.3065 63.9524 83.3735 63.9749C83.4405 63.9973 83.5131 64.0056 83.5858 63.9989C83.6585 63.9922 83.7292 63.9707 83.7925 63.9362C84.1446 63.6344 84.3748 63.2391 84.4447 62.8165C84.6002 62.3786 84.7655 61.9403 84.9457 61.4883C85.1812 60.8641 84.0801 60.6508 83.8446 61.2751L83.82 61.2803Z" fill="#111111"/>
<path d="M86.1642 62.4922L86.0941 63.4244C86.0198 63.7196 86.0631 64.0237 86.2163 64.2841C86.2475 64.3292 86.29 64.367 86.3406 64.3949C86.3913 64.4228 86.4488 64.44 86.509 64.4453C86.5693 64.4507 86.6307 64.444 86.6889 64.4257C86.7471 64.4075 86.8007 64.3781 86.8456 64.3398C87.0618 64.0787 87.1718 63.7628 87.1565 63.4469L87.2613 62.4829C87.3146 61.8699 86.2468 61.9131 86.1935 62.5173L86.1642 62.4922Z" fill="#111111"/>
<path d="M88.1809 64.1987C88.3687 64.3656 88.5715 64.5186 88.7875 64.6565C88.8608 64.6905 88.9447 64.7043 89.029 64.6959C89.1132 64.6876 89.194 64.6576 89.2613 64.6097C89.3286 64.5617 89.3795 64.4979 89.4077 64.4262C89.4358 64.3544 89.44 64.2779 89.4197 64.2061C89.3313 63.9809 89.2192 63.7645 89.0848 63.5597C88.6956 62.937 87.5994 63.6747 88.1809 64.1987Z" fill="#111111"/>
<path d="M93.9944 62.9474C93.9492 63.8013 93.6951 64.6448 93.2497 65.4193C92.8664 66.0837 93.9947 66.6103 94.3584 65.9378C94.8825 64.983 95.1683 63.9471 95.1954 62.9038C95.2147 62.2176 94.0187 62.248 93.9944 62.9474Z" fill="#111111"/>
<path d="M96.0704 64.9702C95.964 65.4324 95.8478 65.8949 95.7611 66.3564C95.6387 67.0068 96.69 67.2392 96.8912 66.5772C97.0222 66.1185 97.1187 65.6567 97.2349 65.1941C97.3919 64.5206 96.2323 64.2921 96.0704 64.9702Z" fill="#111111"/>
<path d="M98.5341 65.3797C98.4368 65.9638 98.3 66.558 98.2666 67.1441C98.27 67.2373 98.3105 67.3248 98.381 67.3912C98.4516 67.4576 98.5475 67.4985 98.6518 67.5068C98.7561 67.515 98.862 67.49 98.9508 67.4362C99.0396 67.3824 99.1056 67.3033 99.1369 67.2129C99.2931 66.6703 99.3509 66.1052 99.448 65.5561C99.5452 65.0069 98.6164 64.8443 98.5292 65.3756L98.5341 65.3797Z" fill="#111111"/>
<path d="M100.397 66.9476C100.487 67.4604 100.615 67.9659 100.781 68.4606C100.8 68.5248 100.838 68.5825 100.891 68.6281C100.945 68.6736 101.011 68.7054 101.084 68.7201C101.15 68.7368 101.22 68.7389 101.288 68.726C101.356 68.7132 101.42 68.6859 101.475 68.6465C101.53 68.6071 101.574 68.5567 101.604 68.4999C101.633 68.443 101.646 68.3814 101.642 68.3203C101.609 67.7627 101.529 67.21 101.403 66.6668C101.298 66.1035 100.293 66.3668 100.412 66.934L100.397 66.9476Z" fill="#111111"/>
<path d="M111.435 65.2821C110.95 66.4521 110.385 67.5976 109.743 68.7119C109.239 69.617 108.451 70.4976 108.218 71.4759C108.196 71.559 108.205 71.6448 108.243 71.7207C108.281 71.7966 108.346 71.8586 108.428 71.8976C108.51 71.9366 108.606 71.9506 108.701 71.9375C108.795 71.9244 108.884 71.8849 108.954 71.8248C109.948 71.1116 110.504 69.8026 111.013 68.7968C111.54 67.7051 111.982 66.5854 112.335 65.446C112.511 64.9285 111.645 64.7764 111.445 65.273L111.435 65.2821Z" fill="#111111"/>
<path d="M111.942 68.6259C111.697 69.1632 111.447 69.6963 111.163 70.2088C110.954 70.6094 110.606 71.1112 110.918 71.5016C110.959 71.5617 111.021 71.6078 111.096 71.6333C111.17 71.6589 111.252 71.6626 111.331 71.6438C111.883 71.5102 112.005 70.9643 112.155 70.5309C112.356 69.9821 112.566 69.4417 112.791 68.8963C112.976 68.4486 112.132 68.1648 111.927 68.6133L111.942 68.6259Z" fill="#111111"/>
<path d="M114.078 71.244C114.15 71.4847 114.276 71.7084 114.447 71.9024C114.488 71.9359 114.537 71.9603 114.592 71.9738C114.646 71.9873 114.703 71.9896 114.76 71.9804C114.816 71.9712 114.87 71.9508 114.917 71.9207C114.965 71.8907 115.004 71.8518 115.033 71.807C115.131 71.5753 115.17 71.3292 115.146 71.0874C115.161 70.3538 113.787 70.6001 114.053 71.223L114.078 71.244Z" fill="#111111"/>
<path d="M116.246 71.7705C116.528 72.1962 117.173 72.7569 117.808 72.5464C117.868 72.5289 117.922 72.4983 117.965 72.4576C118.009 72.4169 118.041 72.3674 118.057 72.3139C118.074 72.2603 118.075 72.2045 118.06 72.1518C118.046 72.0991 118.016 72.0513 117.974 72.0129C117.818 71.8939 117.643 71.7947 117.455 71.7178C117.291 71.6187 117.159 71.4844 117.069 71.3264C117.005 71.2376 116.904 71.1757 116.786 71.1538C116.668 71.1319 116.543 71.1516 116.437 71.2088C116.331 71.266 116.252 71.3562 116.216 71.4609C116.181 71.5655 116.191 71.6764 116.246 71.7705Z" fill="#111111"/>
<path d="M119.616 73.6265L120.023 73.7731C120.116 73.8089 120.222 73.8146 120.323 73.7892C120.424 73.7637 120.513 73.7088 120.576 73.6335C120.64 73.5581 120.673 73.467 120.67 73.3753C120.668 73.2836 120.63 73.1969 120.563 73.1296L120.25 72.8618C119.683 72.3764 118.914 73.3858 119.611 73.631L119.616 73.6265Z" fill="#111111"/>
<path d="M78.7025 24.2529C76.3569 23.3779 74.2999 22.75 71.6658 23.0945C68.9649 23.4937 66.3109 24.1686 63.7571 25.1056C63.3133 25.2614 63.4764 25.8839 63.9447 25.7403C66.0351 25.0852 68.1629 24.5429 70.3161 24.1167C73.0565 23.558 75.8851 23.7634 78.4092 24.7043C78.7332 24.8147 79.0411 24.3671 78.6876 24.2665L78.7025 24.2529Z" fill="#111111"/>
<path d="M59.4817 26.7106C59.101 26.9385 58.7104 27.1581 58.3297 27.386C57.9679 27.5511 57.6657 27.8073 57.463 28.121C57.4364 28.1629 57.4223 28.2098 57.422 28.257C57.4217 28.3042 57.4352 28.3501 57.4613 28.3902C57.4873 28.4302 57.525 28.463 57.5706 28.4854C57.6162 28.5079 57.6682 28.519 57.7214 28.5179C58.4901 28.4551 59.2537 27.6758 59.8375 27.2613C60.1987 27.0079 59.9119 26.4459 59.4866 26.7148L59.4817 26.7106Z" fill="#111111"/>
<path d="M53.3549 30.7951C53.3654 30.9486 53.3195 31.1034 53.2241 31.2363C53.1628 31.3411 53.1399 31.459 53.1589 31.5728C53.1778 31.6865 53.2375 31.7903 53.3292 31.8688C53.421 31.9473 53.54 31.9966 53.669 32.0094C53.7979 32.0221 53.93 31.9978 54.046 31.9398C54.2673 31.8091 54.4457 31.6275 54.5611 31.4158C54.6764 31.204 54.724 30.9706 54.6985 30.7419C54.6929 30.5865 54.6213 30.4415 54.4979 30.3359C54.3745 30.2303 54.2085 30.1719 54.0331 30.1724C53.8577 30.1846 53.6908 30.2551 53.566 30.3698C53.4411 30.4844 53.3675 30.6347 53.3599 30.7905L53.3549 30.7951Z" fill="#111111"/>
<path d="M81.1365 27.487C81.3655 27.7051 81.6175 27.9032 81.8894 28.0788C82.2075 28.2809 82.5838 27.8574 82.4135 27.5976C82.2385 27.3379 82.0361 27.0942 81.8089 26.8696C81.4282 26.4736 80.7262 27.1008 81.1365 27.487Z" fill="#111111"/>
<path d="M43.7968 31.8647C39.7134 33.2064 36.1256 36.353 32.8131 38.8295C32.3873 39.151 32.985 39.6538 33.4108 39.3411C36.5695 37.0232 40.1472 33.9207 44.0333 32.6036C44.5715 32.4223 44.3597 31.6694 43.8116 31.8511L43.7968 31.8647Z" fill="#111111"/>
<path d="M30.7147 41.4415L30.7636 41.4834C30.7955 41.5834 30.8631 41.6702 30.9565 41.7312C31.0499 41.7921 31.1642 41.8241 31.2828 41.8224L31.3418 41.8202C31.473 41.8142 31.6008 41.7723 31.7074 41.7001C31.8141 41.6279 31.8944 41.5291 31.9373 41.4174C31.9802 41.3056 31.9835 41.1864 31.9467 41.0763C31.91 40.9661 31.835 40.8704 31.7322 40.8024C31.3011 40.5387 30.5313 40.9158 30.7345 41.4234L30.7147 41.4415Z" fill="#111111"/>
<path d="M26.2084 45.4151C24.721 46.1203 22.8279 47.1112 22.1581 48.5691C22.0431 48.8311 22.4213 49.0053 22.6535 48.8876C23.2996 48.5154 23.9033 48.0863 24.455 47.6072C25.1665 47.0839 25.9207 46.6093 26.7106 46.1879C27.2988 45.8824 26.7964 45.1359 26.2084 45.4151Z" fill="#111111"/>
<path d="M16.5387 55.8597C16.4428 56.0787 16.3608 56.3017 16.2932 56.5278C16.1372 57.0442 17.0011 57.3533 17.2849 56.8497C17.4244 56.5915 17.5393 56.3297 17.6493 56.0638C17.6686 55.9995 17.6736 55.933 17.6639 55.8682C17.6543 55.8033 17.6302 55.7414 17.5931 55.686C17.556 55.6306 17.5066 55.5827 17.4476 55.5452C17.3887 55.5076 17.3215 55.4811 17.2498 55.4672C17.1053 55.4405 16.9521 55.465 16.8223 55.5357C16.6925 55.6063 16.5962 55.7175 16.5535 55.8461L16.5387 55.8597Z" fill="#111111"/>
<path d="M92.579 30.0861C95.604 31.3873 98.0022 33.2035 100.651 34.9713C100.856 35.1468 101.324 34.8903 101.11 34.6454C99.088 32.3191 95.982 30.6419 93.0354 29.3553C92.5117 29.126 92.0454 29.8572 92.579 30.0861Z" fill="#111111"/>
<path d="M108.448 40.9805C111.003 42.7382 112.681 44.8848 114.861 46.9783C115.081 47.1663 115.539 46.945 115.413 46.6796C114.247 44.1051 111.611 41.9367 109.188 40.2743C108.651 39.902 107.896 40.5956 108.433 40.9679L108.448 40.9805Z" fill="#111111"/>
<path d="M120.19 52.4193C122.462 55.688 125.171 58.9975 125.956 62.8868C126.046 63.3498 126.941 63.2215 126.89 62.7483C126.421 58.6122 123.319 55.3605 120.88 52.0455C120.607 51.6807 119.937 52.0449 120.19 52.4193Z" fill="#111111"/>
<path d="M126.367 65.3649C126.347 65.4966 126.321 65.6328 126.305 65.7686C126.304 65.8205 126.318 65.8712 126.347 65.9149C126.377 65.9585 126.419 65.9935 126.471 66.0157C126.505 66.0364 126.545 66.0491 126.587 66.0529C126.629 66.0567 126.672 66.0514 126.712 66.0375C126.769 66.022 126.82 65.9937 126.862 65.9554C126.904 65.9171 126.934 65.8702 126.949 65.8194L127.001 65.4859C127.062 65.1171 126.424 64.9919 126.367 65.3649Z" fill="#111111"/>
</svg>
