<svg width="136" height="77" viewBox="0 0 136 77" fill="none" xmlns="http://www.w3.org/2000/svg">
<path d="M67.2254 61.8995C67.5374 61.8995 67.7834 62.0435 67.9634 62.3315C68.1434 62.6195 68.2334 63.0155 68.2334 63.5195C68.2334 64.4555 68.0055 65.1995 67.5494 65.7515C66.3974 67.1435 65.2335 68.2175 64.0574 68.9735C62.8815 69.7295 61.4895 70.1075 59.8815 70.1075C58.1055 70.1075 56.6535 69.5855 55.5255 68.5415C54.3975 67.4975 53.3415 65.8715 52.3575 63.6635C51.6375 62.0795 51.0435 60.8975 50.5755 60.1175C50.1075 59.3375 49.6455 58.7855 49.1895 58.4615C48.7335 58.1375 48.1575 57.9395 47.4615 57.8675L47.0655 60.5315C46.5615 63.9635 45.5835 66.4355 44.1315 67.9475C42.6795 69.4595 40.6815 70.2155 38.1375 70.2155C36.4815 70.2155 35.0115 69.8135 33.7275 69.0095C32.4435 68.2055 31.5495 67.1795 31.0455 65.9315C30.8775 65.4995 30.7935 65.0315 30.7935 64.5275C30.7935 63.8075 30.9615 63.1835 31.2975 62.6555C31.6335 62.1275 32.0655 61.8635 32.5935 61.8635C32.9055 61.8635 33.1695 61.9415 33.3855 62.0975C33.6015 62.2535 33.8055 62.5235 33.9975 62.9075C34.7415 64.2995 35.3955 65.2715 35.9595 65.8235C36.5235 66.3755 37.2255 66.6515 38.0655 66.6515C39.0255 66.6515 39.8475 66.2135 40.5315 65.3375C41.2155 64.4615 41.7015 63.1115 41.9895 61.2875L42.4935 57.8675H41.9175C41.3655 57.8675 40.9335 57.7115 40.6215 57.3995C40.3095 57.0875 40.1535 56.6555 40.1535 56.1035C40.1535 55.4795 40.3155 54.9815 40.6395 54.6095C40.9635 54.2375 41.3655 54.0515 41.8455 54.0515H43.0335C43.2015 52.8755 43.3215 52.0595 43.3935 51.6035L44.5095 43.5035C43.8855 43.4315 43.2975 43.3955 42.7455 43.3955C40.7055 43.3955 39.1575 43.7495 38.1015 44.4575C37.0455 45.1655 36.5175 46.1795 36.5175 47.4995C36.5175 48.0995 36.5835 48.5855 36.7155 48.9575C36.8475 49.3295 37.0215 49.7435 37.2375 50.1995C37.3335 50.3915 37.3815 50.6075 37.3815 50.8475C37.3815 51.3755 37.1355 51.8375 36.6435 52.2335C36.1515 52.6295 35.6055 52.8275 35.0055 52.8275C34.2375 52.8275 33.6735 52.4915 33.3135 51.8195C32.5935 50.5475 32.2335 49.1795 32.2335 47.7155C32.2335 46.2035 32.6475 44.8235 33.4755 43.5755C34.3035 42.3275 35.5575 41.3255 37.2375 40.5695C38.9175 39.8135 40.9935 39.4355 43.4655 39.4355C44.5455 39.4355 45.5355 39.4955 46.4355 39.6155C47.3355 39.7355 48.3255 39.9635 49.4055 40.2995C50.5815 40.6595 51.1695 41.3315 51.1695 42.3155C51.1695 43.6355 50.6055 44.2955 49.4775 44.2955L48.0735 53.9795C50.8815 53.6915 53.1675 52.4855 54.9315 50.3615C56.6955 48.2375 58.1655 45.3515 59.3415 41.7035C59.5575 41.0315 59.9235 40.5155 60.4395 40.1555C60.9555 39.7955 61.6095 39.6155 62.4015 39.6155C63.0735 39.6155 63.5955 39.7655 63.9674 40.0655C64.3395 40.3655 64.5254 40.7915 64.5254 41.3435C64.5254 41.5115 64.4775 41.7875 64.3815 42.1715C63.1815 46.1315 61.4655 49.2755 59.2334 51.6035C57.0015 53.9315 54.5655 55.4795 51.9255 56.2475C52.8375 56.4635 53.5875 56.7875 54.1755 57.2195C54.7635 57.6515 55.2615 58.1855 55.6695 58.8215C56.0775 59.4575 56.5455 60.3395 57.0735 61.4675C57.8175 63.0515 58.5135 64.1735 59.1615 64.8335C59.8095 65.4935 60.5655 65.8235 61.4295 65.8235C62.1975 65.8235 62.9295 65.5655 63.6255 65.0495C64.3215 64.5335 65.1974 63.6515 66.2534 62.4035C66.5415 62.0675 66.8654 61.8995 67.2254 61.8995Z" fill="#E2781A"/>
<path d="M68.9894 70.1083C67.9094 70.1083 67.0274 69.6103 66.3434 68.6143C65.6594 67.6183 65.3174 66.3763 65.3174 64.8883C65.3174 63.0883 65.4374 61.4383 65.6774 59.9383C65.9174 58.4383 66.3134 56.8483 66.8654 55.1683C67.1054 54.4483 67.4414 53.9323 67.8734 53.6203C68.3054 53.3083 68.9894 53.1523 69.9254 53.1523C70.4534 53.1523 70.8194 53.2363 71.0234 53.4043C71.2274 53.5723 71.3294 53.8243 71.3294 54.1603C71.3294 54.3523 71.1974 55.0003 70.9334 56.1043C70.6934 56.9923 70.5014 57.7963 70.3574 58.5163C69.8774 61.0363 69.6374 62.7163 69.6374 63.5563C69.6374 64.0603 69.6974 64.4143 69.8174 64.6183C69.9374 64.8223 70.1294 64.9243 70.3934 64.9243C70.7534 64.9243 71.2034 64.5643 71.7434 63.8443C72.2834 63.1243 72.8594 62.0323 73.4714 60.5683C74.0834 59.1043 74.6774 57.3043 75.2534 55.1683C75.4454 54.4483 75.7394 53.9323 76.1354 53.6203C76.5314 53.3083 77.1254 53.1523 77.9174 53.1523C78.4694 53.1523 78.8534 53.2183 79.0694 53.3503C79.2854 53.4823 79.3934 53.7283 79.3934 54.0883C79.3934 54.6883 79.0934 56.3323 78.4934 59.0203C77.8214 62.0923 77.4854 63.9883 77.4854 64.7083C77.4854 65.1643 77.5814 65.5183 77.7734 65.7703C77.9654 66.0223 78.2174 66.1483 78.5294 66.1483C79.0094 66.1483 79.5794 65.8543 80.2394 65.2663C80.8994 64.6783 81.7814 63.7243 82.8854 62.4043C83.1734 62.0683 83.4974 61.9003 83.8574 61.9003C84.1694 61.9003 84.4154 62.0443 84.5954 62.3323C84.7754 62.6203 84.8654 63.0163 84.8654 63.5203C84.8654 64.4803 84.6374 65.2243 84.1814 65.7523C83.1494 67.0243 82.0394 68.0683 80.8514 68.8843C79.6634 69.7003 78.3134 70.1083 76.8014 70.1083C75.6494 70.1083 74.8034 69.6643 74.2634 68.7763C73.7234 67.8883 73.4534 66.6403 73.4534 65.0323C73.0454 66.6643 72.4334 67.9183 71.6174 68.7943C70.8014 69.6703 69.9254 70.1083 68.9894 70.1083Z" fill="#E2781A"/>
<path d="M84.5055 70.1083C83.5935 70.1083 82.9515 69.6283 82.5795 68.6683C82.2075 67.7083 82.0215 66.1723 82.0215 64.0603C82.0215 60.9403 82.4655 57.9763 83.3535 55.1683C83.5695 54.4723 83.9235 53.9623 84.4155 53.6383C84.9075 53.3143 85.5975 53.1523 86.4855 53.1523C86.9655 53.1523 87.3015 53.2123 87.4935 53.3323C87.6855 53.4523 87.7815 53.6803 87.7815 54.0163C87.7815 54.4003 87.6015 55.2643 87.2415 56.6083C87.0015 57.5683 86.8095 58.4083 86.6655 59.1283C86.5215 59.8483 86.4015 60.7363 86.3055 61.7923C87.0975 59.7283 87.9855 58.0483 88.9695 56.7523C89.9535 55.4563 90.9195 54.5323 91.8675 53.9803C92.8155 53.4283 93.6855 53.1523 94.4775 53.1523C96.0375 53.1523 96.8175 53.9323 96.8175 55.4923C96.8175 56.4283 96.5535 58.1203 96.0255 60.5683C95.5695 62.6563 95.3415 64.0363 95.3415 64.7083C95.3415 65.6683 95.6895 66.1483 96.3855 66.1483C96.8655 66.1483 97.4355 65.8543 98.0955 65.2663C98.7555 64.6783 99.6375 63.7243 100.741 62.4043C101.029 62.0683 101.353 61.9003 101.713 61.9003C102.025 61.9003 102.271 62.0443 102.451 62.3323C102.631 62.6203 102.721 63.0163 102.721 63.5203C102.721 64.4803 102.493 65.2243 102.037 65.7523C101.005 67.0243 99.8955 68.0683 98.7075 68.8843C97.5195 69.7003 96.1695 70.1083 94.6575 70.1083C93.4335 70.1083 92.5095 69.7543 91.8855 69.0463C91.2615 68.3383 90.9495 67.3123 90.9495 65.9683C90.9495 65.2963 91.1175 64.0963 91.4535 62.3683C91.7655 60.8563 91.9215 59.8123 91.9215 59.2363C91.9215 58.8523 91.7895 58.6603 91.5255 58.6603C91.2135 58.6603 90.7755 59.0623 90.2115 59.8663C89.6475 60.6703 89.0715 61.7323 88.4835 63.0523C87.8955 64.3723 87.4215 65.7643 87.0615 67.2283C86.7975 68.3563 86.4915 69.1183 86.1435 69.5143C85.7955 69.9103 85.2495 70.1083 84.5055 70.1083Z" fill="#E2781A"/>
<path d="M106.502 70.9001C105.254 70.9001 104.3 70.6121 103.64 70.0361C102.98 69.4601 102.65 68.8121 102.65 68.0921C102.65 67.4681 102.878 66.9281 103.334 66.4721C103.79 66.0161 104.462 65.7881 105.35 65.7881C105.662 65.7881 106.028 65.8181 106.448 65.8781C106.868 65.9381 107.186 65.9801 107.402 66.0041C107.378 65.3801 107.24 64.7921 106.988 64.2401C106.736 63.6881 106.418 63.1541 106.034 62.6381C105.65 62.1221 105.29 61.6721 104.954 61.2881C104.21 62.7041 103.472 63.8801 102.74 64.8161C102.008 65.7521 101.21 66.6401 100.346 67.4801C99.9136 67.9121 99.4576 68.1281 98.9776 68.1281C98.5936 68.1281 98.2816 67.9901 98.0416 67.7141C97.8016 67.4381 97.6816 67.0961 97.6816 66.6881C97.6816 66.2081 97.8496 65.7641 98.1856 65.3561L98.6536 64.7801C99.9736 63.1481 100.97 61.8041 101.642 60.7481C102.05 60.0521 102.53 59.1221 103.082 57.9581C103.634 56.7941 104.174 55.5881 104.702 54.3401C105.158 53.2841 106.106 52.7561 107.546 52.7561C108.218 52.7561 108.686 52.8161 108.95 52.9361C109.214 53.0561 109.346 53.2481 109.346 53.5121C109.346 53.6561 109.298 53.8841 109.202 54.1961C109.106 54.5081 108.974 54.8201 108.806 55.1321C108.374 55.9961 108.158 56.7281 108.158 57.3281C108.158 57.6881 108.284 58.0841 108.536 58.5161C108.788 58.9481 109.178 59.4881 109.706 60.1361C110.474 61.1441 111.056 62.0021 111.452 62.7101C111.848 63.4181 112.046 64.1921 112.046 65.0321C112.046 65.2721 112.022 65.6081 111.974 66.0401C113.15 65.5841 114.53 64.3721 116.114 62.4041C116.402 62.0681 116.726 61.9001 117.086 61.9001C117.398 61.9001 117.644 62.0441 117.824 62.3321C118.004 62.6201 118.094 63.0161 118.094 63.5201C118.094 64.4321 117.866 65.1761 117.41 65.7521C116.21 67.2401 115.064 68.2541 113.972 68.7941C112.88 69.3341 111.53 69.6281 109.922 69.6761C108.962 70.4921 107.822 70.9001 106.502 70.9001Z" fill="#E2781A"/>
<path d="M121.117 56.572C121.069 57.772 121.045 58.708 121.045 59.38C121.045 61.108 121.135 62.458 121.315 63.43C121.495 64.402 121.795 65.098 122.215 65.518C122.635 65.938 123.217 66.148 123.961 66.148C124.345 66.148 124.801 66.028 125.329 65.788C125.857 65.548 126.337 65.236 126.769 64.852C127.033 64.612 127.297 64.492 127.561 64.492C127.849 64.492 128.083 64.654 128.263 64.978C128.443 65.302 128.533 65.692 128.533 66.148C128.533 66.604 128.443 67.048 128.263 67.48C128.083 67.912 127.813 68.272 127.453 68.56C126.205 69.592 124.789 70.108 123.205 70.108C120.925 70.108 119.257 69.154 118.201 67.246C117.145 65.338 116.617 62.848 116.617 59.776C116.617 58.72 116.653 57.652 116.725 56.572H115.321C114.601 56.572 114.115 56.44 113.863 56.176C113.611 55.912 113.485 55.492 113.485 54.916C113.485 53.572 114.025 52.9 115.105 52.9H117.157C117.565 50.26 118.189 47.848 119.029 45.664C119.869 43.48 120.883 41.74 122.071 40.444C123.259 39.148 124.537 38.5 125.905 38.5C126.913 38.5 127.705 38.944 128.281 39.832C128.857 40.72 129.145 41.836 129.145 43.18C129.145 46.9 127.585 50.14 124.465 52.9H128.497C128.881 52.9 129.157 52.984 129.325 53.152C129.493 53.32 129.577 53.632 129.577 54.088C129.577 55.744 128.221 56.572 125.509 56.572H121.117ZM124.933 41.956C124.573 41.956 124.171 42.406 123.727 43.306C123.283 44.206 122.863 45.454 122.467 47.05C122.071 48.646 121.741 50.416 121.477 52.36C122.893 51.136 123.955 49.762 124.663 48.238C125.371 46.714 125.725 45.328 125.725 44.08C125.725 42.664 125.461 41.956 124.933 41.956Z" fill="#E2781A"/>
<path d="M34.4294 13.6592C34.4294 15.6992 33.7094 17.4572 32.2694 18.9332C30.8294 20.4092 28.7294 21.4712 25.9694 22.1192C27.4574 22.5272 28.5854 23.1932 29.3534 24.1172C30.1214 25.0412 30.5054 26.1032 30.5054 27.3032C30.5054 29.1992 29.9114 30.8432 28.7234 32.2352C27.5354 33.6272 25.8014 34.7012 23.5214 35.4572C21.2414 36.2132 18.4934 36.5912 15.2774 36.5912C14.0774 36.5912 13.1174 36.5552 12.3974 36.4832C12.3734 37.1552 12.0854 37.6592 11.5334 37.9952C10.9814 38.3312 10.2734 38.4992 9.40937 38.4992C8.54537 38.4992 7.95137 38.3072 7.62737 37.9232C7.30337 37.5392 7.16537 36.9752 7.21337 36.2312C7.42937 32.8712 7.84937 29.3492 8.47337 25.6652C9.09737 21.9812 9.88937 18.4232 10.8494 14.9912C11.0174 14.3912 11.3534 13.9712 11.8574 13.7312C12.3614 13.4912 13.0214 13.3712 13.8374 13.3712C15.3014 13.3712 16.0334 13.7792 16.0334 14.5952C16.0334 14.9312 15.9614 15.3152 15.8174 15.7472C15.1934 17.6192 14.5694 20.1572 13.9454 23.3612C13.3214 26.5652 12.8774 29.6192 12.6134 32.5232C13.7654 32.6192 14.7014 32.6672 15.4214 32.6672C18.7814 32.6672 21.2474 32.1812 22.8194 31.2092C24.3914 30.2372 25.1774 28.9952 25.1774 27.4832C25.1774 26.4272 24.7274 25.5392 23.8274 24.8192C22.9274 24.0992 21.4214 23.7032 19.3094 23.6312C18.8294 23.6072 18.4934 23.4872 18.3014 23.2712C18.1094 23.0552 18.0134 22.7072 18.0134 22.2272C18.0134 21.5312 18.1574 20.9672 18.4454 20.5352C18.7334 20.1032 19.2614 19.8752 20.0294 19.8512C21.7334 19.8032 23.2754 19.5512 24.6554 19.0952C26.0354 18.6392 27.1214 17.9972 27.9134 17.1692C28.7054 16.3412 29.1014 15.3752 29.1014 14.2712C29.1014 12.8792 28.4174 11.7812 27.0494 10.9772C25.6814 10.1732 23.5814 9.77123 20.7494 9.77123C18.1814 9.77123 15.6974 10.1012 13.2974 10.7612C10.8974 11.4212 8.85737 12.2552 7.17737 13.2632C6.40937 13.7192 5.76137 13.9472 5.23337 13.9472C4.80137 13.9472 4.47137 13.7972 4.24337 13.4972C4.01537 13.1972 3.90137 12.8192 3.90137 12.3632C3.90137 11.7632 4.02737 11.2472 4.27937 10.8152C4.53137 10.3832 5.13737 9.89123 6.09737 9.33923C8.11337 8.18723 10.4774 7.28723 13.1894 6.63923C15.9014 5.99124 18.6734 5.66724 21.5054 5.66724C25.8494 5.66724 29.0894 6.39924 31.2254 7.86323C33.3614 9.32723 34.4294 11.2592 34.4294 13.6592Z" fill="white"/>
<path d="M37.6694 36.8795C36.1814 36.8795 34.9934 36.3395 34.1054 35.2595C33.2174 34.1795 32.7734 32.7635 32.7734 31.0116C32.7734 29.0916 33.2174 27.2736 34.1054 25.5576C34.9934 23.8416 36.1754 22.4616 37.6514 21.4176C39.1274 20.3736 40.6934 19.8516 42.3494 19.8516C42.8774 19.8516 43.2314 19.9536 43.4114 20.1576C43.5914 20.3616 43.7414 20.7276 43.8614 21.2556C44.3654 21.1596 44.8934 21.1116 45.4454 21.1116C46.6214 21.1116 47.2094 21.5316 47.2094 22.3716C47.2094 22.8756 47.0294 24.0756 46.6694 25.9716C46.1174 28.7316 45.8414 30.6516 45.8414 31.7316C45.8414 32.0916 45.9314 32.3795 46.1114 32.5955C46.2914 32.8115 46.5254 32.9195 46.8134 32.9195C47.2694 32.9195 47.8214 32.6256 48.4694 32.0376C49.1174 31.4496 49.9934 30.4956 51.0974 29.1756C51.3854 28.8396 51.7094 28.6716 52.0694 28.6716C52.3814 28.6716 52.6274 28.8156 52.8074 29.1036C52.9874 29.3916 53.0774 29.7876 53.0774 30.2916C53.0774 31.2516 52.8494 31.9956 52.3934 32.5236C51.4094 33.7475 50.3654 34.7795 49.2614 35.6195C48.1574 36.4595 47.0894 36.8795 46.0574 36.8795C45.2654 36.8795 44.5394 36.6095 43.8794 36.0695C43.2194 35.5295 42.7214 34.7915 42.3854 33.8555C41.1374 35.8715 39.5654 36.8795 37.6694 36.8795ZM38.9654 33.2436C39.4934 33.2436 39.9974 32.9316 40.4774 32.3076C40.9574 31.6836 41.3054 30.8556 41.5214 29.8236L42.8534 23.1996C41.8454 23.2236 40.9154 23.6016 40.0634 24.3336C39.2114 25.0656 38.5334 26.0316 38.0294 27.2316C37.5254 28.4316 37.2734 29.7036 37.2734 31.0476C37.2734 31.7915 37.4234 32.3436 37.7234 32.7036C38.0234 33.0635 38.4374 33.2436 38.9654 33.2436Z" fill="white"/>
<path d="M57.0375 36.8801C54.6855 36.8801 52.8555 36.2141 51.5475 34.8821C50.2395 33.5501 49.5854 31.7921 49.5854 29.6081C49.5854 27.6641 49.9694 25.9601 50.7374 24.4961C51.5054 23.0321 52.5014 21.9041 53.7254 21.1121C54.9494 20.3201 56.2335 19.9241 57.5775 19.9241C58.8975 19.9241 59.9234 20.3141 60.6554 21.0941C61.3874 21.8741 61.7534 22.8761 61.7534 24.1001C61.7534 25.1081 61.5315 25.9601 61.0875 26.6561C60.6435 27.3521 60.0615 27.7001 59.3415 27.7001C58.8855 27.7001 58.5195 27.5921 58.2435 27.3761C57.9675 27.1601 57.8295 26.8601 57.8295 26.4761C57.8295 26.3081 57.8534 26.1161 57.9015 25.9001C57.9495 25.6841 57.9855 25.5281 58.0095 25.4321C58.1295 25.0721 58.1895 24.7361 58.1895 24.4241C58.1895 24.1121 58.1115 23.8721 57.9555 23.7041C57.7995 23.5361 57.5775 23.4521 57.2895 23.4521C56.7375 23.4521 56.2215 23.6981 55.7415 24.1901C55.2615 24.6821 54.8775 25.3481 54.5895 26.1881C54.3015 27.0281 54.1575 27.9521 54.1575 28.9601C54.1575 31.7441 55.3694 33.1361 57.7934 33.1361C58.7774 33.1361 59.8395 32.8061 60.9795 32.1461C62.1195 31.4861 63.2414 30.4961 64.3454 29.1761C64.6334 28.8401 64.9574 28.6721 65.3174 28.6721C65.6294 28.6721 65.8754 28.8161 66.0554 29.1041C66.2354 29.3921 66.3255 29.7881 66.3255 30.2921C66.3255 31.2041 66.0974 31.9481 65.6414 32.5241C64.5134 33.9161 63.1635 34.9901 61.5915 35.7461C60.0195 36.5021 58.5015 36.8801 57.0375 36.8801Z" fill="white"/>
<path d="M78.7091 32.9556C79.6931 33.1476 80.1851 33.6876 80.1851 34.5756C80.1851 35.1756 79.9151 35.7096 79.3751 36.1776C78.8351 36.6456 78.0611 36.8796 77.0531 36.8796C75.3251 36.8796 73.9151 36.3456 72.8231 35.2776C71.7311 34.2096 71.1851 32.8116 71.1851 31.0836C71.1851 30.1476 71.6651 29.4756 72.6251 29.0676C73.6811 28.6116 74.4371 28.1256 74.8931 27.6096C75.3491 27.0936 75.5771 26.4636 75.5771 25.7196C75.5771 25.2876 75.4871 24.9636 75.3071 24.7476C75.1271 24.5316 74.9051 24.4236 74.6411 24.4236C73.9931 24.4236 73.2791 24.8916 72.4991 25.8276C71.7191 26.7636 70.9931 27.9696 70.3211 29.4456C69.6491 30.9216 69.1211 32.4396 68.7371 33.9996C68.4731 35.1276 68.1671 35.8896 67.8191 36.2856C67.4711 36.6816 66.9251 36.8796 66.1811 36.8796C65.4371 36.8796 64.8911 36.6096 64.5431 36.0696C64.1951 35.5296 63.9611 34.6956 63.8411 33.5676C63.7211 32.4396 63.6611 30.7836 63.6611 28.5996C63.6611 24.9036 64.0391 21.0516 64.7951 17.0436C65.5511 13.0356 66.6671 9.66961 68.1431 6.94562C69.6191 4.22162 71.3891 2.85962 73.4531 2.85962C74.5571 2.85962 75.4511 3.33362 76.1351 4.28162C76.8191 5.22962 77.1611 6.45961 77.1611 7.97161C77.1611 10.3956 76.4531 12.9096 75.0371 15.5136C73.6211 18.1176 71.3171 21.1596 68.1251 24.6396C68.0531 25.8876 68.0171 27.1716 68.0171 28.4916C69.1691 25.4916 70.4891 23.3136 71.9771 21.9576C73.4651 20.6016 74.8571 19.9236 76.1531 19.9236C77.3531 19.9236 78.3191 20.3316 79.0511 21.1476C79.7831 21.9636 80.1491 22.9716 80.1491 24.1716C80.1491 25.4916 79.8131 26.7036 79.1411 27.8076C78.4691 28.9116 77.3171 29.8956 75.6851 30.7596C75.8291 31.4796 76.1231 31.9776 76.5671 32.2536C77.0111 32.5296 77.7251 32.7636 78.7091 32.9556ZM72.6971 6.42361C72.2651 6.42361 71.7851 7.04161 71.2571 8.27761C70.7291 9.51361 70.2191 11.1816 69.7271 13.2816C69.2351 15.3816 68.8331 17.6676 68.5211 20.1396C70.0091 18.3876 71.2391 16.4796 72.2111 14.4156C73.1831 12.3516 73.6691 10.4796 73.6691 8.79961C73.6691 8.03161 73.5851 7.44361 73.4171 7.03561C73.2491 6.62761 73.0091 6.42361 72.6971 6.42361Z" fill="white"/>
<path d="M101.986 45.8656C111.651 45.8656 119.486 38.0307 119.486 28.3658C119.486 18.7009 111.651 10.866 101.986 10.866C92.3208 10.866 84.4858 18.7009 84.4858 28.3658C84.4858 38.0307 92.3208 45.8656 101.986 45.8656Z" stroke="white" stroke-width="1.99865" stroke-miterlimit="5"/>
<path d="M101.985 10.866C105.252 16.5801 105.317 22.4111 101.985 28.366" stroke="white" stroke-width="2.002" stroke-miterlimit="5" stroke-linecap="round" stroke-linejoin="round"/>
<path d="M114.367 15.9988C112.633 22.3483 108.553 26.5145 101.985 28.3656" stroke="white" stroke-width="2.002" stroke-miterlimit="5" stroke-linecap="round" stroke-linejoin="round"/>
<path d="M119.486 28.3875C113.768 31.6474 107.937 31.7047 101.986 28.3662" stroke="white" stroke-width="2.002" stroke-miterlimit="5" stroke-linecap="round" stroke-linejoin="round"/>
<path d="M114.338 40.7625C107.991 39.0204 103.829 34.9352 101.986 28.3655" stroke="white" stroke-width="2.002" stroke-miterlimit="5" stroke-linecap="round" stroke-linejoin="round"/>
<path d="M101.944 45.866C98.6909 40.1439 98.6406 34.3128 101.986 28.366" stroke="white" stroke-width="2.002" stroke-miterlimit="5" stroke-linecap="round" stroke-linejoin="round"/>
<path d="M89.5737 40.7029C91.3235 34.3576 95.4137 30.2014 101.986 28.3662" stroke="white" stroke-width="2.002" stroke-miterlimit="5" stroke-linecap="round" stroke-linejoin="round"/>
<path d="M84.4858 28.3035C90.2118 25.0574 96.043 25.0143 101.986 28.3673" stroke="white" stroke-width="2.002" stroke-miterlimit="5" stroke-linecap="round" stroke-linejoin="round"/>
<path d="M89.6641 15.939C96.0072 17.6964 100.158 21.7917 101.986 28.3659" stroke="white" stroke-width="2.002" stroke-miterlimit="5" stroke-linecap="round" stroke-linejoin="round"/>
</svg>
