<svg width="117" height="18" viewBox="0 0 117 18" fill="none" xmlns="http://www.w3.org/2000/svg">
<path d="M11.3137 2.27466L80.7404 4.76912L86.8742 2.42231C89.1265 1.56058 91.4745 0.97356 93.8673 0.673958L95.6354 0.452574C98.0363 0.151962 100.465 0.142914 102.868 0.425627L106.229 0.821022C107.239 0.939904 108.232 1.1806 109.184 1.53785L112.239 2.68336C114.422 3.50213 116.03 5.39793 116.487 7.6845C116.66 8.55112 116.661 9.44619 116.487 10.3128C116.029 12.6027 114.411 14.4884 112.218 15.2887L109.095 16.4279C108.181 16.7611 107.232 16.9876 106.267 17.1028L103.157 17.474C100.235 17.8228 97.2773 17.7397 94.3793 17.2273L93.809 17.1265C91.4548 16.7103 89.1587 16.0142 86.9697 15.053L80.7404 12.3176L11.0519 12.51C10.1327 12.5125 9.2299 12.2666 8.43896 11.7983C4.88636 9.69468 5.24031 4.43236 9.00243 2.73162C9.72495 2.40498 10.5213 2.24619 11.3137 2.27466Z" fill="#111111" stroke="white" stroke-width="0.186694"/>
</svg>
