<?xml version="1.0" encoding="UTF-8" standalone="no"?>
<!DOCTYPE svg PUBLIC "-//W3C//DTD SVG 1.1//EN" "http://www.w3.org/Graphics/SVG/1.1/DTD/svg11.dtd">
<svg width="100%" height="100%" viewBox="0 0 136 77" version="1.1" xmlns="http://www.w3.org/2000/svg" xmlns:xlink="http://www.w3.org/1999/xlink" xml:space="preserve" xmlns:serif="http://www.serif.com/" style="fill-rule:evenodd;clip-rule:evenodd;stroke-miterlimit:5;">
    <g id="Logo-in-weiß" serif:id="Logo in weiß" transform="matrix(1.36,0,0,0.77,-162.241,0)">
        <rect x="119.295" y="0" width="100" height="100" style="fill:none;"/>
        <g transform="matrix(0.735294,0,0,1.2987,124.592,30.0345)">
            <path d="M60.022,38.773C60.334,38.773 60.58,38.917 60.76,39.205C60.94,39.493 61.03,39.889 61.03,40.393C61.03,41.329 60.802,42.073 60.346,42.625C59.194,44.017 58.03,45.091 56.854,45.847C55.678,46.603 54.286,46.981 52.678,46.981C50.902,46.981 49.45,46.459 48.322,45.415C47.194,44.371 46.138,42.745 45.154,40.537C44.434,38.953 43.84,37.771 43.372,36.991C42.904,36.211 42.442,35.659 41.986,35.335C41.53,35.011 40.954,34.813 40.258,34.741L39.862,37.405C39.358,40.837 38.38,43.309 36.928,44.821C35.476,46.333 33.478,47.089 30.934,47.089C29.278,47.089 27.808,46.687 26.524,45.883C25.24,45.079 24.346,44.053 23.842,42.805C23.674,42.373 23.59,41.905 23.59,41.401C23.59,40.681 23.758,40.057 24.094,39.529C24.43,39.001 24.862,38.737 25.39,38.737C25.702,38.737 25.966,38.815 26.182,38.971C26.398,39.127 26.602,39.397 26.794,39.781C27.538,41.173 28.192,42.145 28.756,42.697C29.32,43.249 30.022,43.525 30.862,43.525C31.822,43.525 32.644,43.087 33.328,42.211C34.012,41.335 34.498,39.985 34.786,38.161L35.29,34.741L34.714,34.741C34.162,34.741 33.73,34.585 33.418,34.273C33.106,33.961 32.95,33.529 32.95,32.977C32.95,32.353 33.112,31.855 33.436,31.483C33.76,31.111 34.162,30.925 34.642,30.925L35.83,30.925C35.998,29.749 36.118,28.933 36.19,28.477L37.306,20.377C36.682,20.305 36.094,20.269 35.542,20.269C33.502,20.269 31.954,20.623 30.898,21.331C29.842,22.039 29.314,23.053 29.314,24.373C29.314,24.973 29.38,25.459 29.512,25.831C29.644,26.203 29.818,26.617 30.034,27.073C30.13,27.265 30.178,27.481 30.178,27.721C30.178,28.249 29.932,28.711 29.44,29.107C28.948,29.503 28.402,29.701 27.802,29.701C27.034,29.701 26.47,29.365 26.11,28.693C25.39,27.421 25.03,26.053 25.03,24.589C25.03,23.077 25.444,21.697 26.272,20.449C27.1,19.201 28.354,18.199 30.034,17.443C31.714,16.687 33.79,16.309 36.262,16.309C37.342,16.309 38.332,16.369 39.232,16.489C40.132,16.609 41.122,16.837 42.202,17.173C43.378,17.533 43.966,18.205 43.966,19.189C43.966,20.509 43.402,21.169 42.274,21.169L40.87,30.853C43.678,30.565 45.964,29.359 47.728,27.235C49.492,25.111 50.962,22.225 52.138,18.577C52.354,17.905 52.72,17.389 53.236,17.029C53.752,16.669 54.406,16.489 55.198,16.489C55.87,16.489 56.392,16.639 56.764,16.939C57.136,17.239 57.322,17.665 57.322,18.217C57.322,18.385 57.274,18.661 57.178,19.045C55.978,23.005 54.262,26.149 52.03,28.477C49.798,30.805 47.362,32.353 44.722,33.121C45.634,33.337 46.384,33.661 46.972,34.093C47.56,34.525 48.058,35.059 48.466,35.695C48.874,36.331 49.342,37.213 49.87,38.341C50.614,39.925 51.31,41.047 51.958,41.707C52.606,42.367 53.362,42.697 54.226,42.697C54.994,42.697 55.726,42.439 56.422,41.923C57.118,41.407 57.994,40.525 59.05,39.277C59.338,38.941 59.662,38.773 60.022,38.773Z" style="fill:white;fill-rule:nonzero;"/>
            <path d="M61.786,46.981C60.706,46.981 59.824,46.483 59.14,45.487C58.456,44.491 58.114,43.249 58.114,41.761C58.114,39.961 58.234,38.311 58.474,36.811C58.714,35.311 59.11,33.721 59.662,32.041C59.902,31.321 60.238,30.805 60.67,30.493C61.102,30.181 61.786,30.025 62.722,30.025C63.25,30.025 63.616,30.109 63.82,30.277C64.024,30.445 64.126,30.697 64.126,31.033C64.126,31.225 63.994,31.873 63.73,32.977C63.49,33.865 63.298,34.669 63.154,35.389C62.674,37.909 62.434,39.589 62.434,40.429C62.434,40.933 62.494,41.287 62.614,41.491C62.734,41.695 62.926,41.797 63.19,41.797C63.55,41.797 64,41.437 64.54,40.717C65.08,39.997 65.656,38.905 66.268,37.441C66.88,35.977 67.474,34.177 68.05,32.041C68.242,31.321 68.536,30.805 68.932,30.493C69.328,30.181 69.922,30.025 70.714,30.025C71.266,30.025 71.65,30.091 71.866,30.223C72.082,30.355 72.19,30.601 72.19,30.961C72.19,31.561 71.89,33.205 71.29,35.893C70.618,38.965 70.282,40.861 70.282,41.581C70.282,42.037 70.378,42.391 70.57,42.643C70.762,42.895 71.014,43.021 71.326,43.021C71.806,43.021 72.376,42.727 73.036,42.139C73.696,41.551 74.578,40.597 75.682,39.277C75.97,38.941 76.294,38.773 76.654,38.773C76.966,38.773 77.212,38.917 77.392,39.205C77.572,39.493 77.662,39.889 77.662,40.393C77.662,41.353 77.434,42.097 76.978,42.625C75.946,43.897 74.836,44.941 73.648,45.757C72.46,46.573 71.11,46.981 69.598,46.981C68.446,46.981 67.6,46.537 67.06,45.649C66.52,44.761 66.25,43.513 66.25,41.905C65.842,43.537 65.23,44.791 64.414,45.667C63.598,46.543 62.722,46.981 61.786,46.981Z" style="fill:white;fill-rule:nonzero;"/>
            <path d="M77.302,46.981C76.39,46.981 75.748,46.501 75.376,45.541C75.004,44.581 74.818,43.045 74.818,40.933C74.818,37.813 75.262,34.849 76.15,32.041C76.366,31.345 76.72,30.835 77.212,30.511C77.704,30.187 78.394,30.025 79.282,30.025C79.762,30.025 80.098,30.085 80.29,30.205C80.482,30.325 80.578,30.553 80.578,30.889C80.578,31.273 80.398,32.137 80.038,33.481C79.798,34.441 79.606,35.281 79.462,36.001C79.318,36.721 79.198,37.609 79.102,38.665C79.894,36.601 80.782,34.921 81.766,33.625C82.75,32.329 83.716,31.405 84.664,30.853C85.612,30.301 86.482,30.025 87.274,30.025C88.834,30.025 89.614,30.805 89.614,32.365C89.614,33.301 89.35,34.993 88.822,37.441C88.366,39.529 88.138,40.909 88.138,41.581C88.138,42.541 88.486,43.021 89.182,43.021C89.662,43.021 90.232,42.727 90.892,42.139C91.552,41.551 92.434,40.597 93.538,39.277C93.826,38.941 94.15,38.773 94.51,38.773C94.822,38.773 95.068,38.917 95.248,39.205C95.428,39.493 95.518,39.889 95.518,40.393C95.518,41.353 95.29,42.097 94.834,42.625C93.802,43.897 92.692,44.941 91.504,45.757C90.316,46.573 88.966,46.981 87.454,46.981C86.23,46.981 85.306,46.627 84.682,45.919C84.058,45.211 83.746,44.185 83.746,42.841C83.746,42.169 83.914,40.969 84.25,39.241C84.562,37.729 84.718,36.685 84.718,36.109C84.718,35.725 84.586,35.533 84.322,35.533C84.01,35.533 83.572,35.935 83.008,36.739C82.444,37.543 81.868,38.605 81.28,39.925C80.692,41.245 80.218,42.637 79.858,44.101C79.594,45.229 79.288,45.991 78.94,46.387C78.592,46.783 78.046,46.981 77.302,46.981Z" style="fill:white;fill-rule:nonzero;"/>
            <path d="M99.298,47.773C98.05,47.773 97.096,47.485 96.436,46.909C95.776,46.333 95.446,45.685 95.446,44.965C95.446,44.341 95.674,43.801 96.13,43.345C96.586,42.889 97.258,42.661 98.146,42.661C98.458,42.661 98.824,42.691 99.244,42.751C99.664,42.811 99.982,42.853 100.198,42.877C100.174,42.253 100.036,41.665 99.784,41.113C99.532,40.561 99.214,40.027 98.83,39.511C98.446,38.995 98.086,38.545 97.75,38.161C97.006,39.577 96.268,40.753 95.536,41.689C94.804,42.625 94.006,43.513 93.142,44.353C92.71,44.785 92.254,45.001 91.774,45.001C91.39,45.001 91.078,44.863 90.838,44.587C90.598,44.311 90.478,43.969 90.478,43.561C90.478,43.081 90.646,42.637 90.982,42.229L91.45,41.653C92.77,40.021 93.766,38.677 94.438,37.621C94.846,36.925 95.326,35.995 95.878,34.831C96.43,33.667 96.97,32.461 97.498,31.213C97.954,30.157 98.902,29.629 100.342,29.629C101.014,29.629 101.482,29.689 101.746,29.809C102.01,29.929 102.142,30.121 102.142,30.385C102.142,30.529 102.094,30.757 101.998,31.069C101.902,31.381 101.77,31.693 101.602,32.005C101.17,32.869 100.954,33.601 100.954,34.201C100.954,34.561 101.08,34.957 101.332,35.389C101.584,35.821 101.974,36.361 102.502,37.009C103.27,38.017 103.852,38.875 104.248,39.583C104.644,40.291 104.842,41.065 104.842,41.905C104.842,42.145 104.818,42.481 104.77,42.913C105.946,42.457 107.326,41.245 108.91,39.277C109.198,38.941 109.522,38.773 109.882,38.773C110.194,38.773 110.44,38.917 110.62,39.205C110.8,39.493 110.89,39.889 110.89,40.393C110.89,41.305 110.662,42.049 110.206,42.625C109.006,44.113 107.86,45.127 106.768,45.667C105.676,46.207 104.326,46.501 102.718,46.549C101.758,47.365 100.618,47.773 99.298,47.773Z" style="fill:white;fill-rule:nonzero;"/>
            <path d="M113.914,33.445C113.866,34.645 113.842,35.581 113.842,36.253C113.842,37.981 113.932,39.331 114.112,40.303C114.292,41.275 114.592,41.971 115.012,42.391C115.432,42.811 116.014,43.021 116.758,43.021C117.142,43.021 117.598,42.901 118.126,42.661C118.654,42.421 119.134,42.109 119.566,41.725C119.83,41.485 120.094,41.365 120.358,41.365C120.646,41.365 120.88,41.527 121.06,41.851C121.24,42.175 121.33,42.565 121.33,43.021C121.33,43.477 121.24,43.921 121.06,44.353C120.88,44.785 120.61,45.145 120.25,45.433C119.002,46.465 117.586,46.981 116.002,46.981C113.722,46.981 112.054,46.027 110.998,44.119C109.942,42.211 109.414,39.721 109.414,36.649C109.414,35.593 109.45,34.525 109.522,33.445L108.118,33.445C107.398,33.445 106.912,33.313 106.66,33.049C106.408,32.785 106.282,32.365 106.282,31.789C106.282,30.445 106.822,29.773 107.902,29.773L109.954,29.773C110.362,27.133 110.986,24.721 111.826,22.537C112.666,20.353 113.68,18.613 114.868,17.317C116.056,16.021 117.334,15.373 118.702,15.373C119.71,15.373 120.502,15.817 121.078,16.705C121.654,17.593 121.942,18.709 121.942,20.053C121.942,23.773 120.382,27.013 117.262,29.773L121.294,29.773C121.678,29.773 121.954,29.857 122.122,30.025C122.29,30.193 122.374,30.505 122.374,30.961C122.374,32.617 121.018,33.445 118.306,33.445L113.914,33.445ZM117.73,18.829C117.37,18.829 116.968,19.279 116.524,20.179C116.08,21.079 115.66,22.327 115.264,23.923C114.868,25.519 114.538,27.289 114.274,29.233C115.69,28.009 116.752,26.635 117.46,25.111C118.168,23.587 118.522,22.201 118.522,20.953C118.522,19.537 118.258,18.829 117.73,18.829Z" style="fill:white;fill-rule:nonzero;"/>
        </g>
        <g transform="matrix(0.735294,0,2.99353e-17,1.2987,103.678,-13.1187)">
            <path d="M55.669,23.761C55.669,25.801 54.949,27.559 53.509,29.035C52.069,30.511 49.969,31.573 47.209,32.221C48.697,32.629 49.825,33.295 50.593,34.219C51.361,35.143 51.745,36.205 51.745,37.405C51.745,39.301 51.151,40.945 49.963,42.337C48.775,43.729 47.041,44.803 44.761,45.559C42.481,46.315 39.733,46.693 36.517,46.693C35.317,46.693 34.357,46.657 33.637,46.585C33.613,47.257 33.325,47.761 32.773,48.097C32.221,48.433 31.513,48.601 30.649,48.601C29.785,48.601 29.191,48.409 28.867,48.025C28.543,47.641 28.405,47.077 28.453,46.333C28.669,42.973 29.089,39.451 29.713,35.767C30.337,32.083 31.129,28.525 32.089,25.093C32.257,24.493 32.593,24.073 33.097,23.833C33.601,23.593 34.261,23.473 35.077,23.473C36.541,23.473 37.273,23.881 37.273,24.697C37.273,25.033 37.201,25.417 37.057,25.849C36.433,27.721 35.809,30.259 35.185,33.463C34.561,36.667 34.117,39.721 33.853,42.625C35.005,42.721 35.941,42.769 36.661,42.769C40.021,42.769 42.487,42.283 44.059,41.311C45.631,40.339 46.417,39.097 46.417,37.585C46.417,36.529 45.967,35.641 45.067,34.921C44.167,34.201 42.661,33.805 40.549,33.733C40.069,33.709 39.733,33.589 39.541,33.373C39.349,33.157 39.253,32.809 39.253,32.329C39.253,31.633 39.397,31.069 39.685,30.637C39.973,30.205 40.501,29.977 41.269,29.953C42.973,29.905 44.515,29.653 45.895,29.197C47.275,28.741 48.361,28.099 49.153,27.271C49.945,26.443 50.341,25.477 50.341,24.373C50.341,22.981 49.657,21.883 48.289,21.079C46.921,20.275 44.821,19.873 41.989,19.873C39.421,19.873 36.937,20.203 34.537,20.863C32.137,21.523 30.097,22.357 28.417,23.365C27.649,23.821 27.001,24.049 26.473,24.049C26.041,24.049 25.711,23.899 25.483,23.599C25.255,23.299 25.141,22.921 25.141,22.465C25.141,21.865 25.267,21.349 25.519,20.917C25.771,20.485 26.377,19.993 27.337,19.441C29.353,18.289 31.717,17.389 34.429,16.741C37.141,16.093 39.913,15.769 42.745,15.769C47.089,15.769 50.329,16.501 52.465,17.965C54.601,19.429 55.669,21.361 55.669,23.761Z" style="fill:white;fill-rule:nonzero;"/>
            <path d="M58.909,46.981C57.421,46.981 56.233,46.441 55.345,45.361C54.457,44.281 54.013,42.865 54.013,41.113C54.013,39.193 54.457,37.375 55.345,35.659C56.233,33.943 57.415,32.563 58.891,31.519C60.367,30.475 61.933,29.953 63.589,29.953C64.117,29.953 64.471,30.055 64.651,30.259C64.831,30.463 64.981,30.829 65.101,31.357C65.605,31.261 66.133,31.213 66.685,31.213C67.861,31.213 68.449,31.633 68.449,32.473C68.449,32.977 68.269,34.177 67.909,36.073C67.357,38.833 67.081,40.753 67.081,41.833C67.081,42.193 67.171,42.481 67.351,42.697C67.531,42.913 67.765,43.021 68.053,43.021C68.509,43.021 69.061,42.727 69.709,42.139C70.357,41.551 71.233,40.597 72.337,39.277C72.625,38.941 72.949,38.773 73.309,38.773C73.621,38.773 73.867,38.917 74.047,39.205C74.227,39.493 74.317,39.889 74.317,40.393C74.317,41.353 74.089,42.097 73.633,42.625C72.649,43.849 71.605,44.881 70.501,45.721C69.397,46.561 68.329,46.981 67.297,46.981C66.505,46.981 65.779,46.711 65.119,46.171C64.459,45.631 63.961,44.893 63.625,43.957C62.377,45.973 60.805,46.981 58.909,46.981ZM60.205,43.345C60.733,43.345 61.237,43.033 61.717,42.409C62.197,41.785 62.545,40.957 62.761,39.925L64.093,33.301C63.085,33.325 62.155,33.703 61.303,34.435C60.451,35.167 59.773,36.133 59.269,37.333C58.765,38.533 58.513,39.805 58.513,41.149C58.513,41.893 58.663,42.445 58.963,42.805C59.263,43.165 59.677,43.345 60.205,43.345Z" style="fill:white;fill-rule:nonzero;"/>
            <path d="M78.277,46.981C75.925,46.981 74.095,46.315 72.787,44.983C71.479,43.651 70.825,41.893 70.825,39.709C70.825,37.765 71.209,36.061 71.977,34.597C72.745,33.133 73.741,32.005 74.965,31.213C76.189,30.421 77.473,30.025 78.817,30.025C80.137,30.025 81.163,30.415 81.895,31.195C82.627,31.975 82.993,32.977 82.993,34.201C82.993,35.209 82.771,36.061 82.327,36.757C81.883,37.453 81.301,37.801 80.581,37.801C80.125,37.801 79.759,37.693 79.483,37.477C79.207,37.261 79.069,36.961 79.069,36.577C79.069,36.409 79.093,36.217 79.141,36.001C79.189,35.785 79.225,35.629 79.249,35.533C79.369,35.173 79.429,34.837 79.429,34.525C79.429,34.213 79.351,33.973 79.195,33.805C79.039,33.637 78.817,33.553 78.529,33.553C77.977,33.553 77.461,33.799 76.981,34.291C76.501,34.783 76.117,35.449 75.829,36.289C75.541,37.129 75.397,38.053 75.397,39.061C75.397,41.845 76.609,43.237 79.033,43.237C80.017,43.237 81.079,42.907 82.219,42.247C83.359,41.587 84.481,40.597 85.585,39.277C85.873,38.941 86.197,38.773 86.557,38.773C86.869,38.773 87.115,38.917 87.295,39.205C87.475,39.493 87.565,39.889 87.565,40.393C87.565,41.305 87.337,42.049 86.881,42.625C85.753,44.017 84.403,45.091 82.831,45.847C81.259,46.603 79.741,46.981 78.277,46.981Z" style="fill:white;fill-rule:nonzero;"/>
            <path d="M99.949,43.057C100.933,43.249 101.425,43.789 101.425,44.677C101.425,45.277 101.155,45.811 100.615,46.279C100.075,46.747 99.301,46.981 98.293,46.981C96.565,46.981 95.155,46.447 94.063,45.379C92.971,44.311 92.425,42.913 92.425,41.185C92.425,40.249 92.905,39.577 93.865,39.169C94.921,38.713 95.677,38.227 96.133,37.711C96.589,37.195 96.817,36.565 96.817,35.821C96.817,35.389 96.727,35.065 96.547,34.849C96.367,34.633 96.145,34.525 95.881,34.525C95.233,34.525 94.519,34.993 93.739,35.929C92.959,36.865 92.233,38.071 91.561,39.547C90.889,41.023 90.361,42.541 89.977,44.101C89.713,45.229 89.407,45.991 89.059,46.387C88.711,46.783 88.165,46.981 87.421,46.981C86.677,46.981 86.131,46.711 85.783,46.171C85.435,45.631 85.201,44.797 85.081,43.669C84.961,42.541 84.901,40.885 84.901,38.701C84.901,35.005 85.279,31.153 86.035,27.145C86.791,23.137 87.907,19.771 89.383,17.047C90.859,14.323 92.629,12.961 94.693,12.961C95.797,12.961 96.691,13.435 97.375,14.383C98.059,15.331 98.401,16.561 98.401,18.073C98.401,20.497 97.693,23.011 96.277,25.615C94.861,28.219 92.557,31.261 89.365,34.741C89.293,35.989 89.257,37.273 89.257,38.593C90.409,35.593 91.729,33.415 93.217,32.059C94.705,30.703 96.097,30.025 97.393,30.025C98.593,30.025 99.559,30.433 100.291,31.249C101.023,32.065 101.389,33.073 101.389,34.273C101.389,35.593 101.053,36.805 100.381,37.909C99.709,39.013 98.557,39.997 96.925,40.861C97.069,41.581 97.363,42.079 97.807,42.355C98.251,42.631 98.965,42.865 99.949,43.057ZM93.937,16.525C93.505,16.525 93.025,17.143 92.497,18.379C91.969,19.615 91.459,21.283 90.967,23.383C90.475,25.483 90.073,27.769 89.761,30.241C91.249,28.489 92.479,26.581 93.451,24.517C94.423,22.453 94.909,20.581 94.909,18.901C94.909,18.133 94.825,17.545 94.657,17.137C94.489,16.729 94.249,16.525 93.937,16.525Z" style="fill:white;fill-rule:nonzero;"/>
        </g>
        <g id="Semmel" transform="matrix(0.862826,0,0,0.765814,21.715,1.65627)">
            <g transform="matrix(0.73733,0,-2.20586e-32,1.46727,-48.4888,-36.4308)">
                <circle cx="337.019" cy="56.14" r="20.226" style="fill:none;stroke:white;stroke-width:2.31px;"/>
            </g>
            <g id="Semmellinien">
                <g transform="matrix(0.596535,0,0,1.18709,6.18568,0)">
                    <path d="M324.909,13.701C329.576,21.864 329.668,30.194 324.909,38.701" style="fill:none;stroke:white;stroke-width:2.86px;stroke-linecap:round;stroke-linejoin:round;"/>
                </g>
                <g transform="matrix(0.421557,0.839911,-0.42207,0.83889,79.3721,-259.419)">
                    <path d="M324.909,13.701C329.576,21.864 329.668,30.194 324.909,38.701" style="fill:none;stroke:white;stroke-width:2.86px;stroke-linecap:round;stroke-linejoin:round;"/>
                </g>
                <g transform="matrix(-0.00072563,1.18709,-0.596535,-0.00144399,223.328,-339.699)">
                    <path d="M324.909,13.701C329.576,21.864 329.668,30.194 324.909,38.701" style="fill:none;stroke:white;stroke-width:2.86px;stroke-linecap:round;stroke-linejoin:round;"/>
                </g>
                <g transform="matrix(-0.422583,0.837867,-0.421044,-0.840931,353.602,-193.745)">
                    <path d="M324.909,13.701C329.576,21.864 329.668,30.194 324.909,38.701" style="fill:none;stroke:white;stroke-width:2.86px;stroke-linecap:round;stroke-linejoin:round;"/>
                </g>
                <g transform="matrix(-0.596533,-0.00288797,0.00145126,-1.18709,393.769,92.8214)">
                    <path d="M324.909,13.701C329.576,21.864 329.668,30.194 324.909,38.701" style="fill:none;stroke:white;stroke-width:2.86px;stroke-linecap:round;stroke-linejoin:round;"/>
                </g>
                <g transform="matrix(-0.420529,-0.841949,0.423095,-0.836844,320.265,351.885)">
                    <path d="M324.909,13.701C329.576,21.864 329.668,30.194 324.909,38.701" style="fill:none;stroke:white;stroke-width:2.86px;stroke-linecap:round;stroke-linejoin:round;"/>
                </g>
                <g transform="matrix(0.00217689,-1.18708,0.596531,0.00433195,176.212,431.469)">
                    <path d="M324.909,13.701C329.576,21.864 329.668,30.194 324.909,38.701" style="fill:none;stroke:white;stroke-width:2.86px;stroke-linecap:round;stroke-linejoin:round;"/>
                </g>
                <g transform="matrix(0.423606,-0.835819,0.420014,0.842966,46.117,284.883)">
                    <path d="M324.909,13.701C329.576,21.864 329.668,30.194 324.909,38.701" style="fill:none;stroke:white;stroke-width:2.86px;stroke-linecap:round;stroke-linejoin:round;"/>
                </g>
            </g>
        </g>
    </g>
</svg>
