<svg width="432" height="205" viewBox="0 0 432 205" fill="none" xmlns="http://www.w3.org/2000/svg">
<path d="M115.609 41.8799C115.233 46.9112 113.094 51.1833 109.193 54.6963C105.291 58.2092 99.8031 60.6427 92.728 61.9967C96.4027 63.1346 99.1225 64.877 100.888 67.2238C102.653 69.5707 103.424 72.2239 103.203 75.1835C102.853 79.8597 101.053 83.8619 97.8021 87.1899C94.5514 90.518 89.9833 93.0134 84.0979 94.6762C78.2126 96.3391 71.2175 97.0282 63.1127 96.7437C60.0886 96.6375 57.6759 96.4638 55.8747 96.2225C55.6902 97.8777 54.8714 99.0953 53.4183 99.8752C51.9652 100.655 50.15 101.007 47.9726 100.93C45.7952 100.854 44.3336 100.328 43.5879 99.352C42.8423 98.3763 42.5985 96.973 42.8568 95.1423C44.021 86.8745 45.7293 78.2252 47.9815 69.1943C50.2337 60.1635 52.8861 51.4583 55.9386 43.0788C56.4727 41.6138 57.3969 40.6077 58.7114 40.0603C60.0258 39.513 61.7112 39.2754 63.7677 39.3476C67.4571 39.4772 69.2266 40.5482 69.0761 42.5607C69.0141 43.3894 68.7618 44.3301 68.3192 45.3829C66.4012 49.9447 64.3604 56.149 62.1967 63.996C60.0331 71.843 58.3507 79.3359 57.1496 86.4749C60.0351 86.8135 62.3851 87.0147 64.1996 87.0785C72.6672 87.3757 78.9715 86.3953 83.1125 84.1371C87.2535 81.8789 89.4635 78.8852 89.7424 75.1561C89.9373 72.5516 88.967 70.3217 86.8317 68.4663C84.6964 66.6109 80.9742 65.501 75.6649 65.1365C74.4597 65.0349 73.6351 64.7092 73.1911 64.1595C72.747 63.6097 72.5693 62.7429 72.6579 61.5591C72.7863 59.8425 73.2532 58.4642 74.0587 57.4243C74.8642 56.3843 76.2369 55.8687 78.1768 55.8774C82.48 55.9098 86.4125 55.4247 89.9744 54.4222C93.5364 53.4196 96.3917 51.9323 98.5404 49.9602C100.689 47.9882 101.865 45.6407 102.069 42.9179C102.326 39.4847 100.805 36.7161 97.5054 34.6122C94.2062 32.5082 88.988 31.3309 81.851 31.0803C75.3793 30.8531 69.0584 31.4472 62.8883 32.8627C56.7182 34.2781 51.4233 36.1546 47.0035 38.492C44.9839 39.5487 43.3088 40.0537 41.9781 40.007C40.8894 39.9688 40.0855 39.5696 39.5662 38.8095C39.047 38.0495 38.8294 37.1071 38.9136 35.9824C39.0243 34.5026 39.437 33.2411 40.1518 32.198C40.8665 31.1548 42.4845 29.995 45.0057 28.7185C50.2988 26.0556 56.4225 24.0451 63.3766 22.6868C70.3308 21.3286 77.3764 20.7748 84.5134 21.0253C95.4609 21.4097 103.491 23.5017 108.604 27.3014C113.717 31.1011 116.052 35.9606 115.609 41.8799Z" fill="#111111"/>
<path d="M121.005 100.216C117.239 100.084 114.332 98.6414 112.284 95.8882C110.237 93.135 109.375 89.5892 109.7 85.2509C110.056 80.4965 111.516 76.0342 114.082 71.8639C116.648 67.6935 119.895 64.3813 123.825 61.9273C127.754 59.4732 131.814 58.3197 136.006 58.4668C137.342 58.5137 138.219 58.7977 138.637 59.3189C139.055 59.84 139.367 60.7596 139.573 62.0777C140.866 61.8848 142.212 61.8128 143.609 61.8618C146.585 61.9663 147.996 63.0586 147.84 65.1386C147.747 66.3866 147.069 69.3421 145.806 74.005C143.898 80.7904 142.843 85.5202 142.643 88.1945C142.576 89.086 142.751 89.8071 143.166 90.358C143.582 90.9088 144.154 91.197 144.883 91.2226C146.037 91.2631 147.489 90.5841 149.238 89.1857C150.987 87.7872 153.381 85.5027 156.42 82.3322C157.211 81.5257 158.063 81.1385 158.974 81.1705C159.764 81.1982 160.36 81.5766 160.762 82.3058C161.164 83.0349 161.318 84.0235 161.225 85.2715C161.047 87.6487 160.332 89.4707 159.08 90.7377C156.363 93.6812 153.529 96.1439 150.579 98.1259C147.629 100.108 144.848 101.053 142.236 100.961C140.231 100.891 138.444 100.158 136.873 98.7621C135.303 97.3663 134.179 95.4946 133.502 93.147C129.97 98.0282 125.804 100.385 121.005 100.216ZM124.959 91.3278C126.295 91.3747 127.629 90.6469 128.959 89.1444C130.29 87.6418 131.324 85.6224 132.062 83.0862L136.661 66.802C134.105 66.7719 131.681 67.6253 129.389 69.3622C127.097 71.0991 125.202 73.4309 123.704 76.3576C122.206 79.2843 121.332 82.4117 121.083 85.7397C120.945 87.582 121.223 88.9622 121.915 89.8803C122.608 90.7984 123.623 91.2809 124.959 91.3278Z" fill="black"/>
<path d="M170.678 102.449C164.744 102.24 160.25 100.434 157.196 97.0304C154.142 93.6264 152.817 89.2287 153.22 83.8374C153.579 79.0384 154.863 74.866 157.071 71.32C159.279 67.774 162 65.0776 165.234 63.2309C168.469 61.3842 171.781 60.5203 175.172 60.6393C178.502 60.7562 181.019 61.8098 182.721 63.8001C184.424 65.7904 185.162 68.2964 184.936 71.3179C184.75 73.8062 184.033 75.8898 182.784 77.5686C181.535 79.2474 180.002 80.055 178.186 79.9912C177.036 79.9508 176.132 79.6518 175.476 79.0942C174.819 78.5365 174.527 77.7837 174.597 76.8358C174.628 76.421 174.724 75.9492 174.885 75.4202C175.046 74.8913 175.166 74.5094 175.244 74.2745C175.614 73.3965 175.827 72.5723 175.885 71.8021C175.942 71.0319 175.79 70.4326 175.427 70.004C175.065 69.5755 174.52 69.3485 173.794 69.323C172.401 69.2741 171.054 69.8357 169.752 71.0077C168.45 72.1797 167.358 73.7898 166.476 75.8379C165.595 77.886 165.061 80.1542 164.875 82.6426C164.36 89.5151 167.161 93.0587 173.276 93.2733C175.759 93.3605 178.499 92.6399 181.497 91.1115C184.495 89.5832 187.509 87.2387 190.538 84.0779C191.327 83.274 192.175 82.8879 193.083 82.9198C193.871 82.9475 194.465 83.3247 194.865 84.0516C195.266 84.7785 195.42 85.764 195.327 87.0082C195.159 89.2595 194.446 91.076 193.189 92.4575C190.086 95.7939 186.482 98.3256 182.376 100.053C178.271 101.78 174.371 102.578 170.678 102.449Z" fill="black"/>
<path d="M226.097 95.2955C228.501 95.8523 229.622 97.2182 229.46 99.3932C229.352 100.863 228.586 102.147 227.163 103.246C225.74 104.345 223.78 104.85 221.282 104.761C217.001 104.609 213.605 103.177 211.093 100.465C208.581 97.7534 207.482 94.2812 207.796 90.0488C207.965 87.7562 209.277 86.1524 211.729 85.2375C214.428 84.2134 216.39 83.0895 217.613 81.8658C218.836 80.642 219.516 79.1189 219.651 77.2966C219.729 76.2385 219.565 75.437 219.158 74.8921C218.751 74.3472 218.221 74.0632 217.567 74.04C215.961 73.983 214.107 75.0665 212.005 77.2905C209.903 79.5145 207.885 82.4046 205.952 85.9608C204.019 89.5169 202.436 93.1886 201.201 96.9758C200.343 99.7155 199.446 101.555 198.512 102.494C197.578 103.434 196.189 103.871 194.346 103.805C192.503 103.74 191.199 103.03 190.435 101.677C189.67 100.324 189.242 98.2607 189.149 95.4872C189.057 92.7138 189.209 88.6524 189.605 83.303C190.275 74.2503 191.911 64.8486 194.511 55.0981C197.112 45.3476 200.487 37.2012 204.639 30.6589C208.79 24.1167 213.422 20.9363 218.536 21.1178C221.271 21.2149 223.4 22.4545 224.923 24.8366C226.446 27.2187 227.07 30.2615 226.795 33.9649C226.356 39.9021 224.145 45.9975 220.165 52.2511C216.184 58.5047 209.923 65.7531 201.383 73.9961C200.979 77.0466 200.656 80.1884 200.417 83.4215C203.815 76.1748 207.481 70.9561 211.414 67.7657C215.347 64.5752 218.918 63.0369 222.129 63.1509C225.102 63.2564 227.422 64.3406 229.087 66.4037C230.753 68.4667 231.477 70.9678 231.259 73.907C231.02 77.1402 229.967 80.0792 228.102 82.7242C226.237 85.3692 223.204 87.6781 219.004 89.6508C219.23 91.427 219.868 92.6727 220.918 93.3877C221.968 94.1028 223.694 94.7387 226.097 95.2955ZM216.016 29.7808C214.946 29.7428 213.645 31.2143 212.112 34.1953C210.58 37.1762 209.013 41.2169 207.413 46.3173C205.813 51.4177 204.403 56.9815 203.181 63.0089C207.186 58.8484 210.579 54.2832 213.362 49.3133C216.145 44.3433 217.689 39.8008 217.993 35.6859C218.133 33.8048 218.031 32.3572 217.689 31.3431C217.347 30.329 216.789 29.8082 216.016 29.7808Z" fill="black"/>
<path fill-rule="evenodd" clip-rule="evenodd" d="M107.908 56.7625L104.381 52L100 57.7765L104.761 59.497" fill="#ED8335"/>
<path d="M107.908 56.7625L104.381 52L100 57.7765L104.761 59.497" stroke="white" stroke-width="0.4964" stroke-miterlimit="1.5" stroke-linecap="round" stroke-linejoin="round"/>
<path fill-rule="evenodd" clip-rule="evenodd" d="M118.417 66.3426L108.307 56.4187L104.38 59.8267L116.335 68.9527" fill="black"/>
<path d="M118.417 66.3426L108.307 56.4187L104.38 59.8267L116.335 68.9527" stroke="white" stroke-width="0.4964" stroke-miterlimit="1.5" stroke-linecap="round" stroke-linejoin="round"/>
<path fill-rule="evenodd" clip-rule="evenodd" d="M166.855 108.796C151.935 93.8424 136.049 79.599 119.233 66.04L116.287 69.3675L116.263 69.3456C132.231 85.2217 147.969 99.2821 163.518 111.794" fill="#ED8335"/>
<path d="M166.855 108.796C151.935 93.8424 136.049 79.599 119.233 66.04L116.287 69.3675L116.263 69.3456C132.231 85.2217 147.969 99.2821 163.518 111.794" stroke="white" stroke-width="0.4964" stroke-miterlimit="1.5" stroke-linecap="round" stroke-linejoin="round"/>
<path fill-rule="evenodd" clip-rule="evenodd" d="M169.507 102.647L136.022 52.6543L130.498 54.0636C142.042 74.2812 154.439 89.5753 165.72 104.781" fill="black"/>
<path d="M169.507 102.647L136.022 52.6543L130.498 54.0636C142.042 74.2812 154.439 89.5753 165.72 104.781" stroke="white" stroke-width="0.4964" stroke-miterlimit="1.5" stroke-linecap="round" stroke-linejoin="round"/>
<path fill-rule="evenodd" clip-rule="evenodd" d="M136.021 52.6537L131.373 44L124 45.9877L130.497 54.063" fill="#ED8335"/>
<path d="M136.021 52.6537L131.373 44L124 45.9877L130.497 54.063" stroke="white" stroke-width="0.4964" stroke-miterlimit="1.5" stroke-linecap="round" stroke-linejoin="round"/>
<path fill-rule="evenodd" clip-rule="evenodd" d="M175.639 100.775L163.897 61.5389L160.464 61.4958L172.207 100.731" fill="#ED8335"/>
<path d="M175.639 100.775L163.897 61.5389L160.464 61.4958L172.207 100.731" stroke="white" stroke-width="0.476681" stroke-miterlimit="1.5" stroke-linecap="round" stroke-linejoin="round"/>
<path fill-rule="evenodd" clip-rule="evenodd" d="M162.027 69.4707H165.59C165.129 66.0297 163.435 63.2147 160.55 61C159.558 64.4703 159.826 67.3878 162.027 69.4707Z" fill="black" stroke="white" stroke-width="0.4964" stroke-miterlimit="1.5" stroke-linecap="round" stroke-linejoin="round"/>
<path d="M169.82 172.239C145.479 172.239 125.746 153.606 125.746 130.62C125.746 107.634 145.479 89 169.82 89C194.161 89 213.894 107.634 213.894 130.62C213.894 153.606 194.161 172.239 169.82 172.239Z" fill="#ED8335" stroke="white" stroke-width="0.502791" stroke-miterlimit="1.5" stroke-linecap="round" stroke-linejoin="round"/>
<path d="M169.823 89C177.394 102.72 175.173 116.638 169.823 130.618C168.943 117.033 165.575 103.774 154.798 91.4856" stroke="white" stroke-width="0.300848" stroke-miterlimit="1.5" stroke-linecap="round" stroke-linejoin="round"/>
<path d="M138.321 101.6C154.017 105.989 162.993 117.182 169.82 130.548C158.92 121.698 146.521 114.769 129.658 113.558" stroke="white" stroke-width="0.300848" stroke-miterlimit="1.5" stroke-linecap="round" stroke-linejoin="round"/>
<path d="M125.811 131.46C139.993 123.937 154.738 125.818 169.663 130.704C155.381 131.796 141.533 135.274 128.976 145.851" stroke="white" stroke-width="0.300848" stroke-miterlimit="1.5" stroke-linecap="round" stroke-linejoin="round"/>
<path d="M139.843 161.366C144.328 146.45 156.021 137.545 170.015 130.561C160.801 141.17 153.619 153.102 152.483 168.974" stroke="white" stroke-width="0.300848" stroke-miterlimit="1.5" stroke-linecap="round" stroke-linejoin="round"/>
<path d="M172.729 172.255C164.448 158.712 165.54 144.635 169.627 130.389C171.483 144.024 175.702 157.247 186.95 169.241" stroke="white" stroke-width="0.300848" stroke-miterlimit="1.5" stroke-linecap="round" stroke-linejoin="round"/>
<path d="M202.648 157.953C186.71 154.586 177.277 143.929 169.922 130.943C181.203 139.116 193.92 145.257 210.912 145.351" stroke="white" stroke-width="0.300848" stroke-miterlimit="1.5" stroke-linecap="round" stroke-linejoin="round"/>
<path d="M213.616 128.034C200.146 136.286 185.411 134.881 170.272 130.391C184.325 128.753 197.769 124.677 209.402 113.341" stroke="white" stroke-width="0.300848" stroke-miterlimit="1.5" stroke-linecap="round" stroke-linejoin="round"/>
<path d="M198.147 98.2077C194.251 113.301 182.985 122.904 169.367 130.751C178.111 119.621 184.792 107.311 185.331 91.4892" stroke="white" stroke-width="0.300848" stroke-miterlimit="1.5" stroke-linecap="round" stroke-linejoin="round"/>
<path d="M131.492 161.604C132.296 161.604 132.93 161.955 133.394 162.656C133.858 163.357 134.09 164.32 134.09 165.547C134.09 167.825 133.502 169.635 132.327 170.978C129.358 174.366 126.358 176.979 123.328 178.819C120.297 180.659 116.71 181.579 112.566 181.579C107.989 181.579 104.247 180.309 101.341 177.768C98.4337 175.227 95.7124 171.27 93.1766 165.897C91.3211 162.042 89.7904 159.166 88.5843 157.268C87.3783 155.37 86.1877 154.026 85.0125 153.238C83.8374 152.449 82.353 151.968 80.5594 151.792L79.5389 158.275C78.2401 166.627 75.7198 172.643 71.9779 176.322C68.2361 180.002 63.0872 181.842 56.5312 181.842C52.2636 181.842 48.4754 180.863 45.1665 178.907C41.8576 176.95 39.5537 174.453 38.2549 171.416C37.8219 170.365 37.6055 169.226 37.6055 168C37.6055 166.248 38.0384 164.729 38.9043 163.444C39.7702 162.159 40.8835 161.517 42.2441 161.517C43.0482 161.517 43.7285 161.707 44.2851 162.086C44.8418 162.466 45.3675 163.123 45.8623 164.057C47.7796 167.445 49.465 169.81 50.9184 171.154C52.3719 172.497 54.1809 173.169 56.3456 173.169C58.8196 173.169 60.9379 172.103 62.7006 169.971C64.4633 167.839 65.7157 164.554 66.4579 160.115L67.7567 151.792H66.2724C64.8498 151.792 63.7366 151.413 62.9325 150.654C62.1285 149.894 61.7265 148.843 61.7265 147.5C61.7265 145.981 62.144 144.769 62.9789 143.864C63.8139 142.959 64.8498 142.506 66.0868 142.506H69.1483C69.5813 139.644 69.8905 137.658 70.0761 136.549L72.952 116.837C71.344 116.662 69.8287 116.574 68.4061 116.574C63.149 116.574 59.1598 117.436 56.4384 119.159C53.7171 120.882 52.3564 123.349 52.3564 126.562C52.3564 128.022 52.5265 129.204 52.8666 130.11C53.2068 131.015 53.6552 132.022 54.2119 133.132C54.4593 133.599 54.583 134.125 54.583 134.709C54.583 135.994 53.949 137.118 52.6811 138.082C51.4132 139.046 50.0061 139.527 48.4599 139.527C46.4808 139.527 45.0273 138.71 44.0996 137.074C42.2441 133.979 41.3164 130.65 41.3164 127.087C41.3164 123.408 42.3833 120.049 44.5171 117.012C46.6508 113.975 49.8824 111.537 54.2119 109.697C58.5413 107.857 63.8912 106.938 70.2616 106.938C73.0448 106.938 75.5961 107.084 77.9154 107.376C80.2347 107.668 82.786 108.222 85.5692 109.04C88.5998 109.916 90.1151 111.551 90.1151 113.946C90.1151 117.158 88.6616 118.764 85.7547 118.764L82.1366 142.331C89.3729 141.63 95.264 138.695 99.8099 133.526C104.356 128.357 108.144 121.334 111.175 112.457C111.731 110.821 112.674 109.566 114.004 108.69C115.334 107.814 117.019 107.376 119.06 107.376C120.792 107.376 122.137 107.741 123.096 108.471C124.055 109.201 124.534 110.237 124.534 111.581C124.534 111.99 124.41 112.661 124.163 113.596C121.07 123.232 116.648 130.883 110.896 136.549C105.144 142.214 98.8667 145.981 92.0633 147.85C94.4136 148.376 96.3463 149.164 97.8616 150.215C99.3769 151.267 100.66 152.566 101.712 154.114C102.763 155.662 103.969 157.808 105.33 160.553C107.247 164.408 109.041 167.138 110.711 168.744C112.381 170.351 114.329 171.154 116.555 171.154C118.535 171.154 120.421 170.526 122.215 169.27C124.008 168.014 126.266 165.868 128.987 162.831C129.729 162.013 130.564 161.604 131.492 161.604Z" fill="#00211A"/>
<path d="M136.037 181.581C133.254 181.581 130.981 180.369 129.218 177.946C127.456 175.522 126.574 172.499 126.574 168.878C126.574 164.498 126.883 160.483 127.502 156.832C128.12 153.182 129.141 149.313 130.563 145.224C131.182 143.472 132.048 142.217 133.161 141.457C134.274 140.698 136.037 140.318 138.449 140.318C139.81 140.318 140.753 140.523 141.279 140.932C141.804 141.34 142.067 141.954 142.067 142.771C142.067 143.239 141.727 144.816 141.047 147.502C140.428 149.663 139.934 151.62 139.562 153.372C138.325 159.504 137.707 163.593 137.707 165.637C137.707 166.863 137.862 167.725 138.171 168.221C138.48 168.718 138.975 168.966 139.655 168.966C140.583 168.966 141.743 168.09 143.134 166.338C144.526 164.586 146.01 161.928 147.587 158.365C149.164 154.803 150.695 150.422 152.18 145.224C152.674 143.472 153.432 142.217 154.453 141.457C155.473 140.698 157.004 140.318 159.045 140.318C160.467 140.318 161.457 140.479 162.014 140.8C162.57 141.121 162.849 141.72 162.849 142.596C162.849 144.056 162.075 148.057 160.529 154.598C158.797 162.074 157.932 166.688 157.932 168.44C157.932 169.55 158.179 170.411 158.674 171.025C159.169 171.638 159.818 171.945 160.622 171.945C161.859 171.945 163.328 171.229 165.029 169.798C166.73 168.367 169.002 166.046 171.848 162.833C172.59 162.016 173.425 161.607 174.352 161.607C175.156 161.607 175.79 161.957 176.254 162.658C176.718 163.359 176.95 164.323 176.95 165.549C176.95 167.885 176.362 169.696 175.187 170.981C172.528 174.076 169.667 176.617 166.606 178.603C163.544 180.588 160.065 181.581 156.169 181.581C153.2 181.581 151.02 180.501 149.628 178.34C148.237 176.179 147.541 173.142 147.541 169.229C146.49 173.2 144.912 176.252 142.81 178.384C140.707 180.515 138.449 181.581 136.037 181.581Z" fill="#00211A"/>
<path d="M176.023 181.581C173.673 181.581 172.019 180.413 171.06 178.077C170.101 175.741 169.622 172.003 169.622 166.863C169.622 159.271 170.766 152.058 173.055 145.224C173.611 143.531 174.524 142.29 175.791 141.501C177.059 140.713 178.838 140.318 181.126 140.318C182.363 140.318 183.229 140.464 183.724 140.756C184.218 141.048 184.466 141.603 184.466 142.421C184.466 143.355 184.002 145.458 183.074 148.729C182.456 151.065 181.961 153.109 181.59 154.861C181.219 156.613 180.909 158.774 180.662 161.344C182.703 156.321 184.991 152.233 187.527 149.079C190.063 145.925 192.552 143.677 194.996 142.333C197.439 140.99 199.681 140.318 201.722 140.318C205.742 140.318 207.752 142.217 207.752 146.013C207.752 148.291 207.071 152.408 205.711 158.365C204.536 163.447 203.948 166.805 203.948 168.44C203.948 170.776 204.845 171.945 206.639 171.945C207.876 171.945 209.344 171.229 211.045 169.798C212.746 168.367 215.019 166.046 217.864 162.833C218.606 162.016 219.441 161.607 220.369 161.607C221.173 161.607 221.807 161.957 222.271 162.658C222.735 163.359 222.967 164.323 222.967 165.549C222.967 167.885 222.379 169.696 221.204 170.981C218.544 174.076 215.684 176.617 212.622 178.603C209.561 180.588 206.082 181.581 202.185 181.581C199.031 181.581 196.65 180.72 195.042 178.997C193.434 177.274 192.63 174.777 192.63 171.507C192.63 169.871 193.063 166.951 193.929 162.746C194.733 159.066 195.135 156.526 195.135 155.124C195.135 154.19 194.795 153.722 194.114 153.722C193.31 153.722 192.181 154.701 190.728 156.657C189.275 158.614 187.79 161.198 186.275 164.41C184.76 167.623 183.538 171.01 182.61 174.573C181.93 177.318 181.141 179.172 180.245 180.136C179.348 181.1 177.941 181.581 176.023 181.581Z" fill="#00211A"/>
<path d="M232.706 183.507C229.49 183.507 227.032 182.806 225.331 181.404C223.63 180.003 222.78 178.426 222.78 176.673C222.78 175.155 223.367 173.841 224.542 172.731C225.718 171.621 227.449 171.067 229.738 171.067C230.542 171.067 231.485 171.14 232.567 171.286C233.65 171.432 234.469 171.534 235.026 171.592C234.964 170.074 234.608 168.643 233.959 167.299C233.309 165.956 232.49 164.657 231.5 163.401C230.511 162.145 229.583 161.05 228.717 160.116C226.8 163.562 224.898 166.423 223.012 168.701C221.125 170.979 219.069 173.14 216.842 175.184C215.729 176.235 214.554 176.761 213.317 176.761C212.327 176.761 211.523 176.425 210.905 175.754C210.286 175.082 209.977 174.25 209.977 173.257C209.977 172.089 210.41 171.008 211.276 170.015L212.482 168.614C215.884 164.642 218.45 161.371 220.182 158.802C221.234 157.108 222.471 154.845 223.893 152.012C225.316 149.179 226.707 146.245 228.068 143.207C229.243 140.638 231.686 139.353 235.397 139.353C237.129 139.353 238.335 139.499 239.015 139.791C239.695 140.083 240.036 140.55 240.036 141.193C240.036 141.543 239.912 142.098 239.664 142.857C239.417 143.616 239.077 144.376 238.644 145.135C237.531 147.237 236.974 149.019 236.974 150.479C236.974 151.355 237.299 152.319 237.948 153.37C238.598 154.421 239.603 155.735 240.963 157.312C242.942 159.765 244.442 161.853 245.463 163.576C246.483 165.299 246.994 167.183 246.994 169.227C246.994 169.811 246.932 170.629 246.808 171.68C249.839 170.57 253.395 167.621 257.477 162.832C258.219 162.014 259.054 161.605 259.982 161.605C260.786 161.605 261.42 161.955 261.884 162.656C262.347 163.357 262.579 164.321 262.579 165.547C262.579 167.767 261.992 169.577 260.817 170.979C257.724 174.6 254.771 177.068 251.957 178.382C249.143 179.696 245.664 180.411 241.52 180.528C239.046 182.514 236.108 183.507 232.706 183.507Z" fill="#00211A"/>
<path d="M270.376 148.641C270.252 151.561 270.19 153.839 270.19 155.474C270.19 159.679 270.422 162.965 270.886 165.33C271.35 167.696 272.123 169.389 273.205 170.411C274.288 171.433 275.788 171.944 277.705 171.944C278.695 171.944 279.87 171.652 281.23 171.068C282.591 170.484 283.828 169.725 284.941 168.791C285.622 168.207 286.302 167.915 286.982 167.915C287.724 167.915 288.328 168.309 288.791 169.097C289.255 169.886 289.487 170.835 289.487 171.944C289.487 173.054 289.255 174.135 288.791 175.186C288.328 176.237 287.632 177.113 286.704 177.814C283.488 180.326 279.839 181.581 275.757 181.581C269.881 181.581 265.583 179.26 262.861 174.616C260.14 169.973 258.779 163.914 258.779 156.438C258.779 153.868 258.872 151.269 259.058 148.641H255.439C253.584 148.641 252.332 148.32 251.682 147.677C251.033 147.035 250.708 146.013 250.708 144.611C250.708 141.34 252.1 139.705 254.883 139.705H260.171C261.222 133.28 262.83 127.411 264.995 122.096C267.16 116.781 269.773 112.547 272.834 109.393C275.896 106.239 279.189 104.662 282.715 104.662C285.312 104.662 287.353 105.743 288.838 107.904C290.322 110.065 291.064 112.78 291.064 116.051C291.064 125.104 287.044 132.988 279.004 139.705H289.394C290.384 139.705 291.095 139.909 291.528 140.318C291.961 140.727 292.178 141.486 292.178 142.596C292.178 146.626 288.683 148.641 281.694 148.641H270.376ZM280.21 113.072C279.282 113.072 278.246 114.167 277.102 116.358C275.958 118.548 274.875 121.585 273.855 125.469C272.834 129.353 271.984 133.66 271.304 138.391C274.953 135.412 277.69 132.069 279.514 128.36C281.339 124.651 282.251 121.278 282.251 118.241C282.251 114.795 281.571 113.072 280.21 113.072Z" fill="#00211A"/>
</svg>
