<svg width="1438" height="256" viewBox="0 0 1438 256" fill="none" xmlns="http://www.w3.org/2000/svg">
<path fill-rule="evenodd" clip-rule="evenodd" d="M-6.83018 200.912C-6.3496 150.787 -5.86901 100.661 -5.38843 50.536C13.7641 56.0463 33.3731 60.9601 53.4348 65.2772C81.1949 70.5244 109.378 73.7405 137.985 74.9282C175.692 73.7593 213.424 73.0513 251.179 72.8068C310.86 70.0918 368.013 60.6448 422.638 44.4656C442.221 40.0844 461.291 34.9214 479.85 28.9767C479.533 30.8169 479.834 32.6114 480.749 34.3576C483.816 33.8943 486.66 34.821 489.282 37.1363C487.573 37.3446 485.667 37.771 483.563 38.4167C481.011 40.1788 480.994 41.9699 483.512 43.7873C478.615 44.7047 474.162 46.2231 470.153 48.3412C470.782 48.7952 471.413 49.2506 472.042 49.7046C470.85 52.8149 468.605 55.7002 465.302 58.3591C469.404 56.857 472.91 54.8811 475.82 52.4314C474.244 50.1771 475.197 49.9633 478.68 51.7912C479.276 50.7128 480.235 49.8276 481.558 49.1371C484.637 51.5837 488.426 53.1921 492.925 53.9609C494.105 54.9809 495.046 56.111 495.745 57.3486C501.386 55.6458 506.77 56.1531 511.898 58.8677C520.775 55.515 529.368 52.0276 537.677 48.4068C540.524 50.4628 543.675 52.2872 547.135 53.8812C549.691 51.6707 552.25 49.4616 554.807 47.251C558.254 50.3865 561.426 49.9739 564.329 46.0122C566.311 47.3994 568.528 47.6479 570.979 46.7562C570.35 46.3022 569.719 45.8468 569.09 45.3928C572.497 44.3759 575.365 42.8415 577.694 40.7869C578.318 41.6894 578.945 42.5905 579.57 43.493C582.05 41.7194 583.018 39.94 582.474 38.1535C584.328 38.8143 585.904 39.7258 587.203 40.8907C590.311 36.7029 595.081 35.1893 601.512 36.3472C599.229 37.2004 599.223 37.8718 601.493 38.3611C602.133 37.6967 602.774 37.0323 603.414 36.3679C601.284 34.9254 600.348 33.3495 600.606 31.6375C603.293 32.9559 606.135 34.1055 609.133 35.0876C606.85 35.9408 606.843 36.6122 609.113 37.1015C611.897 36.9547 614.755 36.5387 617.685 35.8523C623.978 39.529 630.628 40.273 637.635 38.0842C630.421 35.0984 630.122 33.0809 636.742 32.032C641.915 34.4356 645.681 38.5051 648.038 44.2403C651.293 43.1909 652.894 41.4184 652.844 38.9216C650.942 38.9009 649.04 38.8801 647.138 38.8594C647.566 36.6565 646.95 34.6356 645.294 32.7967C650.713 33.064 656.1 33.3457 661.454 33.6445C660.575 36.8347 658.329 39.72 654.713 42.299C659.773 43.697 659.76 45.0397 654.675 46.3269C657.201 47.2501 659.73 48.172 662.257 49.0952C661.61 50.431 660.962 51.7667 660.316 53.1024C662.113 53.7706 664.013 54.0142 666.015 53.836C665.648 58.2592 666.91 58.7214 669.806 55.2202C672.877 57.092 673.807 59.3405 672.595 61.9645C667.712 58.3824 662.957 58.3305 658.331 61.8088C660.276 63.4414 661.845 65.2498 663.034 67.2313C663.676 66.3427 664.319 65.4554 664.961 64.5668C669.279 67.333 674.034 67.3849 679.225 64.7225C684.847 66.0313 688.666 64.5059 690.682 60.1478C689.924 58.8706 688.664 57.9612 686.904 57.421C691.507 55.1791 696.589 54.116 702.151 54.2304C701.881 52.8149 702.21 51.4757 703.141 50.2129C706.997 52.4666 710.462 54.9657 713.53 57.7116C708.785 58.5004 708.774 59.6188 713.498 61.0682C713.093 61.8507 712.451 62.5151 711.577 63.0614C714.576 62.8901 717.122 61.7993 719.217 59.7878C723.583 60.8681 723.886 62.2142 720.129 63.8262C716.971 62.6638 716.647 63.3316 719.159 65.8297C730.639 67.6631 741.067 71.1339 750.443 76.2421C754.477 74.1041 758.931 72.3628 763.808 71.0168C765.537 72.1475 766.791 73.504 767.573 75.0863C768.876 71.5193 770.143 71.5331 771.377 75.1278C772.374 71.9106 774.602 71.0393 778.059 72.5152C776.496 74.2625 774.579 75.8086 772.308 77.1521C775.169 78.3247 778.011 79.4743 780.835 80.6022C783.387 78.8401 785.924 78.8678 788.442 80.6852C791.898 79.4822 791.593 78.3603 787.523 77.3182C794.474 76.9228 797.307 78.9679 796.024 83.4535C797.775 82.3608 799.054 81.032 799.866 79.4671C802.776 80.0951 805.625 80.5733 808.412 80.9032C809.693 79.5744 810.973 78.2456 812.254 76.9168C819.609 79.8263 827.192 82.3717 835.006 84.5504C830.381 85.1055 830.052 86.2218 834.023 87.8966C836.08 86.4178 838.311 85.0994 840.718 83.9414C840.328 83.1502 839.7 82.472 838.836 81.9066C842.405 82.6304 845.893 82.4442 849.303 81.3495C850.864 84.514 853.376 87.227 856.833 89.4884C859.747 83.7328 862.922 83.319 866.355 88.2495C867.178 86.3034 868.769 85.6494 871.129 86.2875C871.112 88.0772 871.095 89.8683 871.078 91.658C873.066 92.3404 874.97 92.1383 876.79 91.049C878.328 94.0844 880.228 94.328 882.489 91.7826C879.342 86.314 880.621 85.2094 886.325 88.4675C886.967 87.5789 887.611 86.6916 888.253 85.803C889.824 87.1629 891.397 88.5229 892.969 89.8828C894.622 85.8443 897.482 85.2041 901.546 87.9623C906.557 89.1435 911 88.5207 914.879 86.0936C914.489 85.3025 913.86 84.6242 912.996 84.0589C918.024 82.5709 921.852 80.15 924.478 76.7989C930.32 77.4011 936.33 78.8095 942.508 81.0241C945.784 80.9108 946.106 80.2429 943.478 79.0205C941.681 78.3523 939.781 78.1087 937.779 78.2869C937.377 76.7047 938.024 75.369 939.719 74.2797C941.989 74.7691 941.983 75.4404 939.7 76.2937C943.879 78.6099 947.368 78.4238 950.167 75.7365C952.612 77.5639 953.546 79.364 952.968 81.1382C954.876 80.4877 956.785 79.8371 958.693 79.1865C956.533 78.168 956.543 77.0482 958.725 75.8299C961.087 74.705 963.631 73.8384 966.359 73.2277C970.765 75.729 975.189 77.1201 979.633 77.4009C982.341 80.249 983.584 82.9481 983.36 85.4983C990.234 82.9213 990.253 80.9074 983.418 79.4564C984.618 78.4624 985.579 77.353 986.303 76.1309C988.705 76.3451 990.924 76.3694 992.959 76.2036C988.66 75.0637 984.227 74.3439 979.665 74.0443C982.714 73.711 985.573 73.0708 988.243 72.1238C988.872 72.5778 989.503 73.0332 990.132 73.4872C990.976 70.5839 990.051 67.8882 987.357 65.4002C988.48 62.6597 991.028 61.3448 995.003 61.4553C994.571 63.0284 995.191 64.3779 996.866 65.504C1001.38 62.3695 1006.46 61.3064 1012.11 62.3134C1013.21 60.7074 1014.5 59.1544 1015.96 57.6557C1017.71 59.2069 1019.29 59.2242 1020.72 57.7076C1021.34 58.6101 1021.97 59.5112 1022.59 60.4136C1023.88 58.6378 1025.16 56.8605 1026.45 55.0846C1027.23 55.7068 1028.18 56.1656 1029.29 56.4584C1030.98 54.785 1032.9 53.2402 1035.04 51.8214C1032.93 50.3562 1031.04 48.7699 1029.38 47.0599C1028.73 48.8427 1028.08 50.6269 1027.42 52.4097C1026.12 49.8644 1024.23 49.3965 1021.73 51.0048C1018.89 49.5101 1018.27 47.9363 1019.88 46.2848C1017.35 45.3616 1014.82 44.4397 1012.29 43.5164C1014.74 42.6247 1016.96 42.8732 1018.94 44.2604C1021.82 41.8305 1024.7 39.3992 1027.57 36.9693C1026.94 36.5153 1026.31 36.0599 1025.68 35.6059C1028.66 33.4913 1031.85 31.512 1035.25 29.6678C1038.3 33.1359 1041.15 33.1671 1043.81 29.7612C1045.04 33.3559 1046.31 33.3697 1047.61 29.8027C1048.97 32.0439 1051.18 32.7394 1054.25 31.8894C1052.49 31.3492 1051.23 30.4398 1050.47 29.1626C1053.44 24.6658 1054.76 19.7561 1054.42 14.435C1049.86 11.7601 1045.13 9.24578 1040.22 6.89478C1034.89 8.10277 1029.5 7.81971 1024.07 6.047C1026.71 4.1141 1026.09 2.98878 1022.2 2.66964C1025.45 1.04814 1029.26 0.194101 1033.63 0.108898C1051.42 1.28326 1067.87 5.2669 1082.97 12.0611C1091.16 16.8488 1099.99 20.9736 1109.48 24.4355C1119.3 31.9723 1129.69 39.0239 1140.66 45.589C1146.31 51.9174 1151.96 58.2444 1157.6 64.5728C1161.82 67.573 1166.55 70.086 1171.79 72.1131C1174.85 75.6753 1178.63 78.8492 1183.12 81.6361C1201.53 89.2587 1220.49 96.1795 1239.98 102.399C1277.95 114.209 1314.74 112.821 1350.34 98.232C1364.86 90.2706 1379.2 82.1463 1393.37 73.8602C1402.24 65.5083 1411.83 57.5562 1422.13 50.004C1422.15 48.2143 1422.16 46.4232 1422.18 44.6334C1427.25 41.2231 1432.36 37.6976 1437.5 34.0584C1438.1 70.7645 1438.06 107.468 1437.4 144.165C1436.94 144.962 1435.98 145.399 1434.53 145.477C1416.54 139.5 1397.84 138.177 1378.46 141.508C1356.1 151.802 1348.07 161.539 1324.58 170.437C1307.08 174.747 1309.7 179 1256.58 183.5C1236.08 183.5 1213.99 177.349 1194.58 173C1168.59 166.409 1152.26 152.649 1135.99 136.847C1130.35 128.713 1122.5 121.69 1112.41 115.777C1070.79 95.5311 1025.82 90.5635 977.506 100.876C961.544 105.637 945.648 110.386 929.817 115.127C913.679 121.964 896.508 127.372 878.305 131.349C880.339 129.928 878.798 132.613 876.79 131.349C873.174 132.35 871.545 129.63 868.796 131.245C854.011 135.429 839.386 139.969 824.918 144.866C816.16 146.64 807.282 146.991 798.278 145.918C758.543 140.392 725.707 126.606 699.766 104.559C691.551 100.21 679.273 100.005 669.806 97C582.474 86 537.677 93.5 469.381 128.9C457.055 133.748 444.332 138.085 431.215 141.911C407.085 143.827 382.975 145.801 358.879 147.835C342.62 151.935 328.294 158.268 315.9 166.837C304.046 177.937 292.212 188.997 280.393 200.019C261.594 212.75 241.193 224.388 219.192 234.934C207.309 240.15 195.226 243.824 182.946 245.952C183.207 244.779 182.582 243.877 181.07 243.246C176.718 244.301 173 248.43 167.731 245.786C165.421 246.093 164.144 246.975 163.902 248.43C159.312 248.641 157.393 250.41 158.145 253.738C155.054 253.893 152.845 252.973 151.514 250.98C150.791 252.203 149.829 253.312 148.629 254.306C79.2803 261.086 27.4614 243.287 -6.83018 200.912Z" fill="#272626"/>
</svg>
